<svg xmlns="http://www.w3.org/2000/svg" width="57" height="48" viewBox="0 0 57 48" fill="none"><path fill-rule="evenodd" clip-rule="evenodd" d="M24.9316 1.628C20.7983 1.9936 16.4636 3.62663 12.9093 6.15721C11.4578 7.19049 8.96385 9.58544 7.81537 11.0488C3.21408 16.9116 1.67978 23.815 3.49112 30.5058C4.4733 34.1335 7.23093 38.3698 10.2437 40.879C13.8465 43.8795 17.9827 45.6897 22.6577 46.3122C24.7327 46.5884 28.2051 46.4809 30.2394 46.0774C33.3123 45.4679 36.0938 44.2718 38.6208 42.4735C39.849 41.5994 42.0076 39.5824 42.8983 38.4762C43.7108 37.4674 44.8466 35.6455 45.3857 34.4862C45.9047 33.3702 46.5467 31.3022 46.4783 30.9671C46.4563 30.8593 46.0193 31.579 45.5072 32.5662C44.0199 35.4334 42.9351 36.8649 40.7517 38.8413C38.0962 41.2451 34.6887 42.8773 30.9542 43.5343C29.2894 43.8271 25.7827 43.8267 24.1941 43.5335C21.1095 42.9641 18.9681 42.142 16.4987 40.5796C12.4304 38.0055 9.80727 34.2586 8.80788 29.594C8.63924 28.8073 8.58774 28.0202 8.5886 26.2471C8.58983 24.1113 8.61712 23.8199 8.93607 22.5466C9.12646 21.7865 9.44689 20.7432 9.6481 20.2283C11.6288 15.1595 16.267 11.478 22.2275 10.2434C23.4178 9.99694 26.5191 9.89807 27.8411 10.0646C31.2358 10.4921 34.2874 11.885 36.7147 14.1149C37.8037 15.1152 39.1278 16.7135 39.1278 17.0275C39.1278 17.3711 38.8321 17.5071 36.9596 18.0236C35.9738 18.2956 35.1054 18.5764 35.0299 18.6476C34.8089 18.856 35.0785 19.1339 35.9448 19.5909C41.6542 22.6026 46.7398 25.2018 46.9915 25.2367C47.1896 25.2641 47.3789 25.2015 47.5005 25.0682C47.6069 24.9516 48.3301 23.7606 49.1077 22.4218C49.8852 21.083 51.3039 18.6487 52.2607 17.0123C53.2173 15.3759 54 13.9528 54 13.8499C54 13.5012 53.6107 13.5196 52.0307 13.9431C51.1636 14.1755 50.316 14.3656 50.147 14.3656C49.7935 14.3656 49.6515 14.2096 48.5122 12.5689C47.4206 10.9968 46.6526 10.1327 45.008 8.6253C43.4098 7.16046 42.1916 6.27069 40.3571 5.22813C35.3742 2.39618 30.1174 1.16932 24.9316 1.628Z" fill="#FFDA00"></path><path d="M9.49107 30C9.37321 30 9.2875 29.9625 9.23393 29.8875C9.16964 29.8018 9.14821 29.7 9.16964 29.5821L9.45893 28.1839C9.48036 28.1089 9.52857 27.9857 9.60357 27.8143C9.67857 27.6429 9.82857 27.4875 10.0536 27.3482L11.1464 26.4643C12.2929 25.7357 13.2464 25.1196 14.0071 24.6161C14.7679 24.1018 15.3518 23.6571 15.7589 23.2821C16.1768 22.9071 16.4179 22.5589 16.4821 22.2375C16.5357 21.9804 16.5196 21.7607 16.4339 21.5786C16.3482 21.3857 16.1232 21.2893 15.7589 21.2893C15.4911 21.2893 15.2607 21.3482 15.0679 21.4661C14.8857 21.5839 14.7357 21.7286 14.6179 21.9C14.5107 22.0714 14.4196 22.2375 14.3446 22.3982C14.2589 22.5375 14.1571 22.6339 14.0393 22.6875C13.9214 22.7411 13.7982 22.7679 13.6696 22.7679H11.1464C11.05 22.7679 10.975 22.7357 10.9214 22.6714C10.8679 22.5964 10.8518 22.5107 10.8732 22.4143C11.0018 21.8464 11.2321 21.3321 11.5643 20.8714C11.8964 20.4 12.3036 19.9875 12.7857 19.6339C13.2679 19.2804 13.8089 19.0125 14.4089 18.8304C15.0196 18.6375 15.6625 18.5411 16.3375 18.5411C17.2804 18.5411 18.0571 18.6857 18.6679 18.975C19.2893 19.2643 19.7232 19.6714 19.9696 20.1964C20.2268 20.7214 20.275 21.3482 20.1143 22.0768C20.0071 22.6339 19.7714 23.1536 19.4071 23.6357C19.0429 24.1179 18.5768 24.5786 18.0089 25.0179C17.4411 25.4464 16.7929 25.8911 16.0643 26.3518L15.1 27.1232H18.8607C18.9786 27.1232 19.0696 27.1661 19.1339 27.2518C19.1982 27.3375 19.2196 27.4393 19.1982 27.5571L18.7643 29.5821C18.7429 29.7 18.6786 29.8018 18.5714 29.8875C18.475 29.9625 18.3679 30 18.25 30H9.49107ZM24.755 30C24.6372 30 24.5461 29.9625 24.4818 29.8875C24.4175 29.8018 24.3961 29.7 24.4175 29.5821L24.755 27.9911H19.5961C19.4783 27.9911 19.3872 27.9536 19.3229 27.8786C19.2693 27.7929 19.2533 27.6911 19.2747 27.5732L19.6765 25.6607C19.7086 25.5321 19.7461 25.4304 19.789 25.3554C19.8425 25.2804 19.8961 25.2214 19.9497 25.1786L25.88 19.0232C26.0622 18.8411 26.2765 18.75 26.5229 18.75H29.6247C29.7425 18.75 29.8336 18.7929 29.8979 18.8786C29.9622 18.9536 29.9836 19.05 29.9622 19.1679L28.6765 25.1625H30.0908C30.2193 25.1625 30.3158 25.2054 30.38 25.2911C30.4443 25.3661 30.4658 25.4625 30.4443 25.5804L30.0104 27.5732C29.989 27.6911 29.9247 27.7929 29.8175 27.8786C29.7211 27.9536 29.614 27.9911 29.4961 27.9911H28.0818L27.7443 29.5821C27.7229 29.7 27.664 29.8018 27.5675 29.8875C27.4711 29.9625 27.364 30 27.2461 30H24.755ZM23.2604 25.3071H25.43L26.0568 22.3018L23.2604 25.3071Z" fill="#FFDA00"></path><path d="M35.6814 37.2979C35.5911 37.2979 35.5209 37.2678 35.4708 37.2076C35.4206 37.1374 35.4056 37.0571 35.4256 36.9669C35.4457 36.9067 35.4658 36.8616 35.4858 36.8315L40.4052 29.4449H36.0876C35.9773 29.4449 35.892 29.4098 35.8318 29.3396C35.7817 29.2593 35.7666 29.164 35.7867 29.0537L36.1778 27.1582C36.1979 27.0479 36.2531 26.9576 36.3433 26.8874C36.4436 26.8071 36.5489 26.767 36.6592 26.767H44.076C44.1963 26.767 44.2816 26.8071 44.3317 26.8874C44.3819 26.9576 44.3969 27.0479 44.3768 27.1582L44.0308 28.813C43.9907 28.9735 43.9406 29.1139 43.8804 29.2343C43.8202 29.3446 43.76 29.4499 43.6999 29.5502L38.7504 36.9518C38.7002 37.002 38.62 37.0722 38.5097 37.1625C38.4094 37.2527 38.269 37.2979 38.0884 37.2979H35.6814Z" fill="#FFDA00"></path><path fill-rule="evenodd" clip-rule="evenodd" d="M35.6885 23.0963C36.1873 23.3954 36.3493 24.0422 36.0502 24.541C34.6339 26.9035 32.4821 30.5101 30.6301 33.6513C29.7039 35.2222 28.8542 36.6743 28.2092 37.7954C27.5437 38.9525 27.1411 39.6811 27.0615 39.8644C26.8297 40.3978 26.2093 40.6423 25.6759 40.4105C25.1425 40.1787 24.898 39.5583 25.1298 39.0249C25.2695 38.7035 25.7538 37.8401 26.3836 36.7452C27.0341 35.6144 27.8883 34.1548 28.8158 32.5816C30.6713 29.4345 32.8258 25.8233 34.2438 23.4581C34.5429 22.9592 35.1897 22.7973 35.6885 23.0963Z" fill="#FFDA00"></path></svg>