<svg xmlns="http://www.w3.org/2000/svg" width="57" height="48" viewBox="0 0 57 48" fill="none"><path fill-rule="evenodd" clip-rule="evenodd" d="M27.7593 2.09016C27.6315 2.13505 25.654 3.09387 23.3649 4.22084C21.0757 5.34786 17.6048 7.04913 15.6518 8.00146C13.6987 8.95379 12.0731 9.75925 12.0392 9.79142C12.0054 9.82354 11.9898 9.88097 12.0045 9.91902C12.0281 9.97966 12.1763 9.98822 13.198 9.98791L14.3645 9.98751L22.8648 7.6183C28.7222 5.98574 31.3824 5.22596 31.4208 5.17467C31.4514 5.13373 31.4655 5.06619 31.4521 5.0246C31.4388 4.98295 31.2029 4.51791 30.928 3.99109C30.3662 2.91484 30.1414 2.63436 29.6217 2.36143C28.9415 2.00424 28.2785 1.90766 27.7593 2.09016ZM36.0948 5.49301C35.9374 5.52676 35.3781 5.68214 34.8519 5.83831C33.0345 6.37772 29.9004 7.24413 24.1368 8.8006C22.1631 9.33357 20.5083 9.79738 20.4594 9.83126C20.3705 9.89278 20.3705 9.89287 20.4606 9.94056C20.5969 10.0127 39.8278 10.0078 39.9008 9.9356C39.9301 9.90664 39.9541 9.84758 39.9541 9.80436C39.9541 9.66052 39.0713 6.67843 38.9721 6.48703C38.7584 6.07473 38.1352 5.64256 37.5367 5.49152C37.2087 5.40872 36.4846 5.40947 36.0948 5.49301ZM5.92092 11.5465C5.76894 11.5791 5.50288 11.6795 5.32959 11.7695C4.73364 12.0791 4.36078 12.5113 4.12775 13.1628L4 13.5199V27.3648V41.2096L4.12704 41.5648C4.35723 42.2083 4.7423 42.6564 5.32054 42.9537C5.95213 43.2785 4.0625 43.2493 24.4916 43.2493H42.8612L43.2028 43.1369C44.0142 42.8697 44.5769 42.2984 44.8641 41.4502C44.9402 41.2252 44.9467 40.9686 44.9596 37.66C44.9723 34.3747 44.9678 34.1049 44.8982 34.0289C44.8253 33.9493 44.6064 33.9468 37.8055 33.9464C33.5379 33.9462 30.6402 33.9293 30.4107 33.9033C28.7454 33.7145 27.3401 32.7481 26.6131 31.292C26.3123 30.6895 26.1613 30.1693 26.1051 29.5417C26.0496 28.9213 26.0495 25.5497 26.105 24.9855C26.1651 24.375 26.2985 23.9023 26.5666 23.3497C27.2062 22.0317 28.2914 21.1531 29.7817 20.7466L30.211 20.6296L37.5105 20.6173C44.2472 20.6059 44.8164 20.5993 44.8917 20.5319C44.9699 20.4619 44.9728 20.3119 44.9596 16.9897C44.9467 13.7715 44.9398 13.5031 44.8647 13.2793C44.7119 12.8237 44.4853 12.4595 44.1754 12.1716C43.8164 11.8382 43.5324 11.6815 43.0796 11.567C42.7402 11.4811 42.5297 11.4802 24.4667 11.4836C9.28871 11.4866 6.15045 11.4972 5.92092 11.5465ZM29.6725 22.3115C29.0938 22.5092 28.5947 22.9497 28.3076 23.5162C27.9834 24.1557 27.9916 24.0555 27.9916 27.3867V30.3705L28.0955 30.6996C28.3355 31.4599 28.7915 32.0163 29.4163 32.3112L29.7671 32.4768L37.6237 32.4897C44.835 32.5016 45.5033 32.4967 45.7591 32.4297C46.4942 32.2371 47.1361 31.5356 47.4069 30.6291C47.4974 30.3259 47.5 30.235 47.5 27.3648C47.5 24.4945 47.4974 24.4036 47.4069 24.1004C47.1415 23.2118 46.5394 22.5386 45.8092 22.3139C45.5483 22.2336 45.2715 22.2308 37.7196 22.2322C30.3502 22.2336 29.8872 22.2381 29.6725 22.3115ZM34.4306 25.7167C34.7569 25.8138 35.1226 26.0913 35.331 26.3998C35.7483 27.0176 35.7274 27.8006 35.2773 28.4049C34.8609 28.9642 34.1091 29.234 33.4513 29.0603C32.66 28.8514 32.0985 28.1476 32.0985 27.3648C32.0985 26.779 32.4382 26.1867 32.9469 25.8854C33.4094 25.6116 33.8928 25.5566 34.4306 25.7167Z" fill="#FFDA00"></path></svg>