<svg width="39" height="38" viewBox="0 0 39 38" fill="none" xmlns="http://www.w3.org/2000/svg">
<g clip-path="url(#clip0_332_558)">
<circle cx="19.9979" cy="19" r="19" fill="#FF6C0E" fill-opacity="0.2"/>
<circle cx="19.9979" cy="19.0002" r="14.1667" fill="#FF6C0E" stroke="white" stroke-width="3"/>
<path fill-rule="evenodd" clip-rule="evenodd" d="M4.85154 34.6774C4.74704 34.6774 4.64571 34.6362 4.5705 34.5602C4.47154 34.4597 4.43275 34.3132 4.46996 34.1778L6.55917 26.5493C5.264 24.2488 4.58079 21.6363 4.58238 18.9842C4.58554 10.4801 11.5055 3.5625 20.0088 3.5625C24.1334 3.56408 28.0086 5.17038 30.9211 8.08529C33.8337 11.001 35.4368 14.8754 35.4352 18.9952C35.432 27.4985 28.5113 34.4169 20.0088 34.4169C17.4842 34.4161 14.9865 33.7931 12.7698 32.6143L4.95208 34.6639C4.91883 34.6734 4.88558 34.6774 4.85154 34.6774Z" fill="white"/>
<path fill-rule="evenodd" clip-rule="evenodd" d="M28.8459 10.1588C26.4868 7.79808 23.351 6.49737 20.0133 6.49658C13.1226 6.49658 7.51843 12.0984 7.51526 18.9843C7.51447 21.3443 8.17472 23.6417 9.42555 25.6312L9.72322 26.1038L8.46051 30.7121L13.1891 29.4723L13.6459 29.7431C15.5633 30.8815 17.7626 31.4832 20.0046 31.484H20.0093C26.8953 31.484 32.4995 25.8813 32.5018 18.9946C32.5026 15.6577 31.2051 12.5196 28.8459 10.1588Z" fill="#FF6C0E"/>
<path fill-rule="evenodd" clip-rule="evenodd" d="M28.8459 10.1588C26.4868 7.79808 23.351 6.49737 20.0133 6.49658C13.1226 6.49658 7.51843 12.0984 7.51526 18.9843C7.51447 21.3443 8.17472 23.6417 9.42555 25.6312L9.72322 26.1038L8.46051 30.7121L13.1891 29.4723L13.6459 29.7431C15.5633 30.8815 17.7626 31.4832 20.0046 31.484H20.0093C26.8953 31.484 32.4995 25.8813 32.5018 18.9946C32.5026 15.6577 31.2051 12.5196 28.8459 10.1588Z" fill="url(#paint0_linear_332_558)"/>
<path fill-rule="evenodd" clip-rule="evenodd" d="M16.252 12.7023C15.9709 12.0769 15.6748 12.0642 15.4065 12.0532C15.1872 12.0437 14.937 12.0444 14.6868 12.0444C14.4367 12.0444 14.0298 12.1387 13.6854 12.5147C13.341 12.8907 12.3704 13.7988 12.3704 15.6465C12.3704 17.4943 13.7163 19.2803 13.9039 19.5304C14.0915 19.7806 16.5021 23.6938 20.3195 25.1996C23.4918 26.4504 24.1378 26.2018 24.8265 26.1393C25.5153 26.0767 27.0487 25.2312 27.3614 24.3541C27.6741 23.4769 27.6741 22.7256 27.5807 22.5689C27.4865 22.4121 27.2363 22.3187 26.8611 22.1303C26.4858 21.9419 24.6389 21.0338 24.2945 20.9087C23.9501 20.7837 23.7 20.7211 23.449 21.0972C23.1988 21.4724 22.4792 22.3187 22.2599 22.5689C22.0406 22.8198 21.8213 22.8515 21.4461 22.6631C21.0708 22.4747 19.8612 22.0788 18.4259 20.7995C17.3096 19.8044 16.556 18.5749 16.3367 18.1989C16.1174 17.8236 16.3129 17.6202 16.5013 17.4325C16.67 17.2639 16.8766 16.9939 17.065 16.7747C17.2526 16.5554 17.3152 16.3986 17.4403 16.1485C17.5653 15.8975 17.5028 15.6782 17.4086 15.4906C17.316 15.3022 16.586 13.4449 16.252 12.7023Z" fill="white"/>
</g>
<defs>
<linearGradient id="paint0_linear_332_558" x1="8.0175" y1="27.6594" x2="31.7831" y2="27.2745" gradientUnits="userSpaceOnUse">
<stop stop-color="#FFDA00"/>
<stop offset="1" stop-color="#FF6C0E"/>
</linearGradient>
<clipPath id="clip0_332_558">
<rect width="38" height="38" fill="white" transform="translate(0.997925)"/>
</clipPath>
</defs>
</svg>
