<svg width="195" height="112" viewBox="0 0 195 112" fill="none" xmlns="http://www.w3.org/2000/svg">
    <g clip-path="url(#clip0_332_474)">
        <path d="M20.2318 74.9661C20.2678 76.205 20.0109 77.435 19.4821 78.557C19.0167 79.4957 18.3235 80.304 17.4652 80.9086C16.575 81.5259 15.5711 81.9623 14.5112 82.1927C13.3223 82.4551 12.1078 82.5853 10.89 82.5808H8.04844C7.78573 82.5792 7.53182 82.675 7.33619 82.8496C7.23348 82.9439 7.15323 83.0599 7.10134 83.189C7.04946 83.3182 7.02721 83.4573 7.03627 83.5961V89.8223C7.03058 90.0442 6.93951 90.2555 6.78184 90.4125C6.62418 90.5695 6.41198 90.6602 6.18908 90.6658H1.35321C1.24228 90.6662 1.13248 90.6438 1.03059 90.6002C0.928704 90.5565 0.836902 90.4925 0.7609 90.412C0.677022 90.3388 0.61063 90.2479 0.56653 90.1458C0.522431 90.0438 0.501739 89.9332 0.505989 89.8223V70.1211C0.495279 69.7055 0.577914 69.2928 0.747835 68.9131C0.917756 68.5334 1.17067 68.1963 1.48815 67.9263C1.76874 67.6893 2.08834 67.5025 2.43284 67.3739C2.75859 67.2507 3.10406 67.1875 3.45249 67.1872H10.89C12.115 67.1806 13.3362 67.3235 14.5263 67.6127C15.6064 67.8556 16.6263 68.3127 17.5252 68.9565C18.379 69.5848 19.064 70.413 19.5196 71.3678C20.0304 72.4972 20.2741 73.7282 20.2318 74.9661V74.9661ZM13.6715 74.9661C13.7155 74.5702 13.6696 74.1694 13.5371 73.7936C13.4046 73.4177 13.1889 73.0762 12.906 72.7945C12.6231 72.5128 12.2802 72.2981 11.9027 72.1661C11.5252 72.0342 11.1227 71.9884 10.725 72.0323H5.01197C5.21986 72.0364 5.42541 72.0768 5.61926 72.1517C5.8473 72.233 6.06014 72.3516 6.24905 72.5026C6.44259 72.6715 6.60718 72.8707 6.73638 73.0924C6.87221 73.334 6.94203 73.6068 6.93883 73.8837V76.7803C6.93664 76.9203 6.96424 77.0592 7.0198 77.1879C7.07536 77.3165 7.15763 77.432 7.26121 77.5268C7.46568 77.713 7.73386 77.8145 8.01096 77.8105H10.7475C11.5406 77.8572 12.3199 77.5887 12.9143 77.0639C13.1819 76.781 13.3875 76.4458 13.5178 76.0795C13.6482 75.7132 13.7005 75.3239 13.6715 74.9363V74.9661Z" fill="#231F20"/>
        <path d="M42.7544 90.6959H37.986C37.6967 90.7087 37.4106 90.6305 37.1684 90.4724C36.9262 90.3142 36.7401 90.0843 36.6365 89.8149L33.1877 83.0961C33.1015 82.9298 32.97 82.7911 32.8082 82.696C32.6463 82.6009 32.4608 82.5533 32.273 82.5586H27.842C28.0951 82.5472 28.3474 82.5945 28.5791 82.6968C28.8107 82.7992 29.0152 82.9538 29.1765 83.1484C29.4774 83.4755 29.6504 83.8994 29.6639 84.3428V89.8971C29.6687 90.0039 29.6505 90.1105 29.6104 90.2096C29.5703 90.3088 29.5093 90.3982 29.4314 90.4719C29.3519 90.5508 29.257 90.6127 29.1526 90.6537C29.0481 90.6948 28.9364 90.7142 28.8241 90.7108H24.1907C24.0799 90.7103 23.9704 90.6875 23.8686 90.6439C23.7668 90.6003 23.675 90.5367 23.5984 90.457C23.5184 90.387 23.4543 90.3009 23.4104 90.2043C23.3664 90.1078 23.3436 90.003 23.3435 89.8971V70.1511C23.3343 69.7642 23.4077 69.3798 23.559 69.0233C23.7102 68.6668 23.9357 68.3464 24.2207 68.0832C24.4928 67.8169 24.8149 67.6066 25.1687 67.4644C25.5225 67.3222 25.901 67.2509 26.2825 67.2546H33.4576C34.6688 67.2491 35.8766 67.3844 37.0563 67.6577C38.1312 67.9008 39.1492 68.3468 40.0553 68.9716C40.9327 69.5834 41.648 70.398 42.1396 71.3456C42.6793 72.4639 42.9367 73.6966 42.8894 74.9364C42.9074 76.2069 42.5921 77.4601 41.9747 78.5721C41.3315 79.6785 40.3952 80.5876 39.2681 81.1999C39.1906 81.238 39.1239 81.2949 39.0741 81.3653C39.0243 81.4357 38.9931 81.5175 38.9832 81.603C38.9628 81.731 38.9923 81.8618 39.0657 81.9688L43.3392 89.6507C43.4022 89.7629 43.4382 89.8881 43.4442 90.0165C43.4443 90.1077 43.4242 90.1978 43.3854 90.2804C43.3465 90.363 43.2898 90.4361 43.2193 90.4943C43.0956 90.6178 42.9295 90.6899 42.7544 90.6959V90.6959ZM36.3966 74.8991C36.4219 74.5095 36.3612 74.1191 36.2187 73.7554C36.0762 73.3917 35.8554 73.0635 35.5719 72.7939C34.9719 72.2888 34.2053 72.0229 33.4201 72.0473H27.5946C27.8493 72.0378 28.103 72.0844 28.3376 72.1837C28.5722 72.2831 28.7818 72.4328 28.9516 72.6222C29.2656 72.9482 29.4449 73.3799 29.4539 73.8316V76.5639C29.4532 76.6944 29.4787 76.8237 29.5289 76.9442C29.5791 77.0647 29.653 77.174 29.7463 77.2656C29.84 77.3697 29.9561 77.4513 30.0859 77.5043C30.2158 77.5573 30.356 77.5804 30.4961 77.5717H33.4351C34.207 77.6063 34.9671 77.3742 35.5869 76.9148C35.8679 76.663 36.0871 76.3503 36.2275 76.0008C36.3679 75.6513 36.4257 75.2744 36.3966 74.8991V74.8991Z" fill="#231F20"/>
        <path d="M56.5193 91.0991C53.3204 91.0991 50.7963 90.3252 48.9469 88.7774C47.0975 87.2296 46.1154 84.9501 46.0004 81.9391C46.0004 81.312 46.0004 80.3415 46.0004 79.0425C46.0004 77.7436 46.0004 76.7656 46.0004 76.1161C46.0904 73.13 47.0775 70.8456 48.9619 69.2629C50.8463 67.6802 53.3654 66.8764 56.5193 66.8516C59.6533 66.8516 62.1524 67.6553 64.0168 69.2629C65.8812 70.8704 66.8658 73.1548 66.9708 76.1161C67.0158 77.4151 67.0383 78.3931 67.0383 79.0425C67.0383 79.692 67.0383 80.6849 66.9708 81.9391C66.8608 84.9252 65.8862 87.2047 64.0468 88.7774C62.2074 90.3501 59.6983 91.124 56.5193 91.0991ZM56.5193 86.0451C57.0348 86.0701 57.55 85.9888 58.0325 85.8064C58.515 85.624 58.9545 85.3444 59.3234 84.985C60.0973 84.0836 60.4969 82.9221 60.4405 81.7375C60.4855 80.4311 60.508 79.4979 60.508 78.938C60.508 78.3781 60.508 77.4449 60.4405 76.2132C60.4976 75.0284 60.098 73.8668 59.3234 72.9657C58.9545 72.6063 58.515 72.3267 58.0325 72.1443C57.55 71.9619 57.0348 71.8806 56.5193 71.9056C55.998 71.8785 55.4766 71.9587 54.9877 72.1411C54.4989 72.3235 54.053 72.6042 53.6778 72.9657C52.9059 73.8683 52.5066 75.0289 52.5607 76.2132C52.5607 76.8403 52.5607 77.751 52.5607 78.938C52.5607 80.125 52.5607 81.0881 52.5607 81.7375C52.5081 82.9216 52.9072 84.0817 53.6778 84.985C54.053 85.3465 54.4989 85.6272 54.9877 85.8096C55.4766 85.992 55.998 86.0721 56.5193 86.0451V86.0451Z" fill="#231F20"/>
        <path d="M70.8924 89.8149V70.1212C70.8788 69.6667 70.9766 69.2158 71.1773 68.8073C71.367 68.4592 71.6215 68.1501 71.927 67.8965C72.2104 67.6553 72.5392 67.4726 72.8942 67.359C73.2057 67.2522 73.532 67.1943 73.8614 67.1873H82.176C83.2665 67.1802 84.3547 67.2878 85.4225 67.5084C86.3758 67.6963 87.2828 68.0692 88.0916 68.6058C88.8651 69.1386 89.4875 69.8611 89.8984 70.7035C90.3791 71.7067 90.6105 72.8102 90.5732 73.9211C90.5774 74.85 90.3175 75.761 89.8235 76.5489C89.3319 77.3413 88.6387 77.9904 87.8142 78.4302C88.8231 78.8314 89.6643 79.5636 90.1983 80.5056C90.7587 81.4239 91.0568 82.477 91.0605 83.5515C91.0959 84.691 90.8568 85.8224 90.3633 86.8512C89.93 87.7379 89.2868 88.5065 88.4889 89.0908C87.6634 89.6831 86.7282 90.1068 85.7373 90.3375C84.6454 90.6027 83.5249 90.7331 82.401 90.7257H71.7396C71.6285 90.727 71.5184 90.705 71.4164 90.6613C71.3144 90.6176 71.2227 90.553 71.1473 90.4719C71.0538 90.3917 70.9816 90.2898 70.9371 90.1752C70.8927 90.0606 70.8773 89.9369 70.8924 89.8149V89.8149ZM81.4413 76.4817C82.1169 76.5124 82.7797 76.2915 83.3007 75.8621C83.5479 75.6335 83.7403 75.3524 83.8635 75.0396C83.9868 74.7269 84.0379 74.3905 84.0129 74.0555C84.0354 73.7239 83.9793 73.3916 83.849 73.0856C83.7188 72.7795 83.5181 72.5083 83.2632 72.2937C82.7386 71.8846 82.0845 71.6754 81.4188 71.7039H75.3384C75.8178 71.7108 76.2767 71.899 76.622 72.2304C76.9672 72.5617 77.1731 73.0113 77.1977 73.4881V75.5038C77.212 75.7421 77.3072 75.9685 77.4676 76.1458C77.5568 76.2571 77.6714 76.3456 77.8017 76.404C77.9321 76.4624 78.0746 76.4891 78.2174 76.4817H81.4413ZM81.7487 86.1121C82.4697 86.1431 83.1761 85.9033 83.728 85.4402C83.987 85.195 84.1885 84.8959 84.3181 84.5643C84.4477 84.2327 84.5022 83.8766 84.4778 83.5216C84.4979 83.1648 84.4414 82.8078 84.3122 82.4744C84.1829 82.141 83.9838 81.8388 83.728 81.5881C83.1974 81.0915 82.4916 80.8233 81.7637 80.8415H75.3759C75.8553 80.8485 76.3142 81.0367 76.6594 81.368C77.0047 81.6993 77.2105 82.1489 77.2352 82.6258V85.0819C77.2428 85.3265 77.3296 85.5622 77.4826 85.7538C77.5722 85.8646 77.6868 85.9528 77.8171 86.0111C77.9474 86.0695 78.0897 86.0964 78.2324 86.0897L81.7487 86.1121Z" fill="#FFDA00"/>
        <path d="M94.667 81.8341V70.1881C94.6583 69.7556 94.7562 69.3276 94.9519 68.9414C95.1433 68.5944 95.3975 68.2856 95.7016 68.0306C95.9797 67.7883 96.2998 67.5986 96.6463 67.4707C96.9665 67.3567 97.3034 67.2962 97.6435 67.2915H100.185C100.415 67.2836 100.639 67.3669 100.807 67.523C100.892 67.6003 100.959 67.6951 101.003 67.8009C101.047 67.9067 101.067 68.0207 101.062 68.1351V81.7669C101.001 82.8505 101.319 83.9217 101.962 84.7979C102.766 85.514 103.807 85.9099 104.886 85.9099C105.965 85.9099 107.006 85.514 107.81 84.7979C108.448 83.9193 108.763 82.8492 108.702 81.7669V70.1508C108.693 69.7174 108.794 69.2886 108.995 68.9041C109.184 68.5555 109.438 68.2463 109.744 67.9933C110.022 67.7555 110.342 67.573 110.689 67.4558C111.005 67.3487 111.337 67.2933 111.671 67.2915H114.205C114.437 67.2849 114.663 67.3678 114.835 67.523C114.917 67.6018 114.982 67.6972 115.025 67.8027C115.067 67.9082 115.087 68.0215 115.083 68.1351V81.8341C115.111 83.2462 114.856 84.6496 114.333 85.9625C113.892 87.0641 113.193 88.0445 112.294 88.8217C111.358 89.6023 110.267 90.1773 109.092 90.5089C107.734 90.8907 106.327 91.0767 104.916 91.0613C103.511 91.0747 102.11 90.8938 100.755 90.5238C99.5719 90.2079 98.4719 89.6399 97.531 88.859C96.6157 88.0774 95.9012 87.0895 95.4467 85.9774C94.9107 84.6622 94.6455 83.2533 94.667 81.8341V81.8341Z" fill="#FFDA00"/>
        <path d="M128.892 78.4005C129.287 78.3996 129.678 78.481 130.04 78.6394C130.38 78.7851 130.704 78.9652 131.007 79.1769C131.272 79.3588 131.523 79.561 131.756 79.7816L132.191 80.222L139.261 89.5463C139.313 89.5989 139.352 89.6625 139.376 89.7324C139.399 89.8022 139.406 89.8764 139.396 89.9494C139.397 90.0386 139.38 90.1271 139.345 90.2093C139.31 90.2915 139.259 90.3657 139.194 90.4272C139.045 90.5581 138.853 90.6298 138.654 90.6288H133.406C133.145 90.6409 132.886 90.5886 132.65 90.4766C132.415 90.3645 132.211 90.1963 132.056 89.9867C130.992 88.6206 130.04 87.3813 129.177 86.254L127.925 84.6714L127.048 83.5441L126.358 82.6483C126.163 82.3994 126.043 82.2426 125.998 82.1779C125.947 82.1473 125.892 82.1246 125.834 82.1108C125.721 82.1108 125.661 82.1779 125.661 82.3123V89.7777C125.668 89.887 125.651 89.9964 125.611 90.0984C125.571 90.2003 125.508 90.2921 125.429 90.3675C125.346 90.4435 125.249 90.5025 125.144 90.541C125.038 90.5794 124.926 90.5966 124.814 90.5914H120.315C120.099 90.5947 119.889 90.5144 119.731 90.3675C119.647 90.2942 119.58 90.2033 119.536 90.1013C119.492 89.9992 119.471 89.8887 119.476 89.7777V70.084C119.478 69.3383 119.768 68.6219 120.285 68.0833C120.548 67.7898 120.872 67.5575 121.235 67.4027C121.598 67.2478 121.99 67.1744 122.385 67.1875H124.814C124.927 67.1834 125.04 67.2025 125.146 67.2436C125.252 67.2847 125.348 67.3469 125.429 67.4263C125.507 67.5059 125.568 67.6007 125.608 67.7047C125.648 67.8087 125.666 67.9198 125.661 68.0311V74.832C125.659 74.8551 125.662 74.8785 125.669 74.9004C125.677 74.9223 125.69 74.9421 125.706 74.9586C125.723 74.975 125.743 74.9876 125.765 74.9954C125.787 75.0032 125.81 75.006 125.834 75.0037C125.864 75.0048 125.895 74.9993 125.923 74.9877C125.952 74.9761 125.977 74.9587 125.998 74.9365L131.614 67.8295C131.756 67.6149 131.954 67.4423 132.186 67.3294C132.418 67.2165 132.676 67.1675 132.934 67.1875H138.077C138.264 67.19 138.443 67.2619 138.579 67.389C138.644 67.4494 138.695 67.5223 138.729 67.6032C138.764 67.6841 138.782 67.7713 138.782 67.8593C138.782 68.0833 138.737 68.2251 138.647 68.2699C137.5 69.763 136.465 71.1217 135.535 72.3087C134.973 73.0552 134.538 73.6002 134.216 74.0258C133.893 74.4513 133.601 74.8469 133.323 75.2053C133.046 75.5636 132.806 75.8622 132.611 76.0937C132.416 76.3251 132.311 76.4595 132.289 76.4818C132.266 76.5042 132.131 76.6909 131.951 76.8999C131.743 77.1479 131.503 77.3687 131.239 77.5569C130.926 77.8003 130.58 77.9989 130.212 78.1466C129.796 78.3253 129.346 78.4119 128.892 78.4005V78.4005Z" fill="#FFDA00"/>
        <path d="M160.547 83.6186C160.587 84.8627 160.239 86.0886 159.55 87.1273C158.917 88.0663 158.079 88.8499 157.098 89.4192C156.069 90.0157 154.95 90.4418 153.784 90.6808C152.619 90.9317 151.43 91.0618 150.238 91.069C149.085 91.0646 147.936 90.9521 146.804 90.7331C145.664 90.5216 144.562 90.1417 143.535 89.6058C142.567 89.0942 141.721 88.3813 141.053 87.5155C140.361 86.5819 139.976 85.458 139.951 84.2979C139.949 84.2021 139.968 84.107 140.007 84.0193C140.046 83.9316 140.104 83.8534 140.176 83.7903C140.318 83.6578 140.507 83.5856 140.701 83.5887H145.2C145.318 83.5885 145.436 83.601 145.552 83.626C145.651 83.646 145.747 83.6786 145.837 83.7231C146.048 83.8581 146.242 84.0186 146.414 84.2009C146.569 84.5431 146.791 84.8512 147.066 85.1075C147.342 85.3638 147.665 85.5631 148.019 85.694C148.74 85.954 149.501 86.0854 150.268 86.0822C150.656 86.0794 151.044 86.057 151.43 86.015C151.849 85.9753 152.26 85.8773 152.652 85.7238C153.014 85.5837 153.342 85.3673 153.612 85.0893C153.887 84.7912 154.033 84.3966 154.017 83.9918C154.036 83.7323 153.983 83.4724 153.864 83.2406C153.745 83.0089 153.565 82.8142 153.342 82.678C152.896 82.4099 152.421 82.1944 151.925 82.0359C151.475 81.8827 151.017 81.7556 150.553 81.6552C150.02 81.5283 149.406 81.4014 148.708 81.267C147.693 81.0673 146.691 80.803 145.709 80.4757C144.787 80.1734 143.915 79.7356 143.123 79.1767C142.369 78.641 141.744 77.9448 141.293 77.1386C140.758 76.0556 140.526 74.849 140.621 73.6457C140.716 72.4424 141.135 71.2868 141.833 70.3003C142.68 69.2218 143.793 68.3806 145.065 67.8592C146.649 67.2506 148.337 66.9539 150.035 66.9857C150.811 66.9871 151.586 67.0495 152.352 67.1723C153.149 67.2902 153.931 67.4929 154.684 67.777C155.434 68.0546 156.145 68.4286 156.798 68.8894C157.45 69.3485 158.023 69.9109 158.493 70.5542C159.2 71.4028 159.636 72.4428 159.745 73.5403C159.736 73.7294 159.656 73.9082 159.52 74.0405C159.461 74.1128 159.386 74.1716 159.302 74.2128C159.218 74.2541 159.126 74.2768 159.032 74.2794H154.301C154.08 74.2842 153.86 74.2309 153.665 74.1248C153.471 74.0186 153.307 73.8635 153.192 73.6747C153.012 73.1498 152.636 72.7141 152.142 72.4578C151.491 72.1343 150.771 71.9729 150.043 71.9875C149.699 71.9878 149.356 72.0103 149.016 72.0547C148.677 72.0963 148.349 72.2001 148.049 72.3608C147.766 72.5091 147.522 72.7213 147.336 72.9804C147.202 73.1897 147.115 73.4253 147.081 73.671C147.046 73.9168 147.065 74.1671 147.136 74.405C147.207 74.6429 147.329 74.8627 147.493 75.0497C147.657 75.2367 147.859 75.3864 148.086 75.4888C149.297 76.0141 150.569 76.3878 151.872 76.6011C152.929 76.8027 153.987 77.049 155.029 77.3477C156.016 77.6038 156.959 78.0064 157.825 78.5421C158.629 79.0514 159.304 79.7386 159.797 80.5503C160.324 81.4856 160.583 82.5468 160.547 83.6186V83.6186Z" fill="#FFDA00"/>
        <path d="M163.861 89.8518V70.1507C163.849 69.758 163.921 69.3672 164.072 69.0043C164.223 68.6414 164.45 68.3146 164.738 68.0454C165.29 67.5124 166.031 67.2174 166.8 67.2243H169.506C169.618 67.215 169.731 67.2309 169.836 67.271C169.941 67.3111 170.036 67.3742 170.113 67.4557C170.193 67.5349 170.255 67.6294 170.296 67.7334C170.337 67.8374 170.357 67.9486 170.353 68.0604V89.8518C170.354 89.9588 170.334 90.0649 170.293 90.1637C170.251 90.2625 170.19 90.352 170.113 90.4267C170.04 90.5149 169.947 90.5851 169.841 90.6317C169.736 90.6783 169.621 90.7001 169.506 90.6954H164.708C164.485 90.6898 164.273 90.599 164.115 90.4421C163.957 90.2851 163.866 90.0738 163.861 89.8518V89.8518Z" fill="#FFDA00"/>
        <path d="M194.436 90.6954H189.668C189.377 90.7087 189.09 90.6308 188.846 90.4727C188.603 90.3146 188.415 90.0844 188.311 89.8145L184.862 83.0956C184.776 82.9287 184.645 82.7895 184.483 82.6943C184.321 82.5991 184.135 82.5519 183.947 82.5581H179.516C179.769 82.5461 180.022 82.5932 180.253 82.6956C180.485 82.798 180.69 82.9529 180.851 83.1479C181.153 83.4747 181.329 83.8982 181.345 84.3423V89.8966C181.349 90.0039 181.33 90.1109 181.288 90.2101C181.247 90.3093 181.185 90.3984 181.105 90.4714C181.026 90.5503 180.931 90.6122 180.827 90.6533C180.722 90.6943 180.61 90.7137 180.498 90.7103H175.865C175.754 90.7089 175.645 90.6858 175.543 90.6423C175.442 90.5987 175.349 90.5356 175.272 90.4565C175.195 90.3848 175.132 90.2983 175.088 90.2022C175.044 90.106 175.02 90.0021 175.018 89.8966V70.1507C175.008 69.763 175.082 69.3778 175.234 69.0211C175.387 68.6643 175.615 68.3443 175.902 68.0827C176.174 67.8164 176.496 67.6062 176.85 67.464C177.204 67.3218 177.583 67.2505 177.964 67.2541H185.132C186.343 67.2482 187.551 67.3835 188.73 67.6572C189.804 67.9026 190.822 68.3484 191.729 68.9711C192.604 69.5834 193.317 70.398 193.806 71.3451C194.349 72.4623 194.607 73.6958 194.556 74.936C194.577 76.2069 194.262 77.4609 193.641 78.5716C193.001 79.6778 192.067 80.5869 190.942 81.1994C190.864 81.2371 190.796 81.2938 190.745 81.3641C190.694 81.4345 190.661 81.5165 190.65 81.6026C190.633 81.7304 190.662 81.86 190.732 81.9684L194.998 89.6502C195.059 89.7628 195.093 89.8882 195.096 90.016C195.096 90.1065 195.076 90.1959 195.039 90.2784C195.001 90.3608 194.947 90.4342 194.878 90.4938C194.76 90.6112 194.603 90.6826 194.436 90.6954V90.6954ZM188.078 74.8986C188.104 74.5083 188.043 74.1171 187.899 73.7531C187.755 73.3892 187.532 73.0614 187.246 72.7934C186.649 72.2888 185.885 72.0228 185.102 72.0469H179.284C179.537 72.0374 179.79 72.084 180.023 72.1834C180.257 72.2828 180.465 72.4325 180.633 72.6217C180.949 72.947 181.131 73.3786 181.143 73.8311V76.5634C181.142 76.8255 181.244 77.0774 181.428 77.2652C181.522 77.3684 181.638 77.4494 181.768 77.5023C181.898 77.5553 182.038 77.5788 182.178 77.5713H185.124C185.894 77.6059 186.651 77.3737 187.268 76.9143C187.55 76.6633 187.77 76.3507 187.911 76.001C188.051 75.6513 188.108 75.274 188.078 74.8986V74.8986Z" fill="#FFDA00"/>
        <path d="M194.728 99.7217H175.902V101.513H194.728V99.7217Z" fill="#FFDA00"/>
        <path d="M19.2492 99.8037H0.423096V101.595H19.2492V99.8037Z" fill="#FFDA00"/>
        <path d="M27.0548 98.5793C27.3845 98.5744 27.7117 98.6382 28.0151 98.7668C28.3186 98.8954 28.5916 99.0858 28.8167 99.3259L28.9516 99.4528L29.9863 98.4375L29.8438 98.3255C29.2917 97.7762 28.5887 97.4017 27.8233 97.2491C27.058 97.0965 26.2644 97.1726 25.5424 97.4678C24.8203 97.763 24.202 98.2642 23.7652 98.9083C23.3284 99.5524 23.0926 100.311 23.0875 101.088C23.0823 101.865 23.3079 102.626 23.7361 103.276C24.1643 103.926 24.7758 104.435 25.4938 104.74C26.2119 105.045 27.0043 105.132 27.7717 104.989C28.539 104.847 29.2469 104.481 29.8064 103.939L29.9488 103.805L28.8992 102.805L28.7717 102.924C28.4738 103.206 28.111 103.41 27.7152 103.52C27.3194 103.629 26.9027 103.64 26.5016 103.552C26.1005 103.464 25.7272 103.279 25.4145 103.014C25.1017 102.749 24.8591 102.411 24.7078 102.031C24.5565 101.651 24.5011 101.24 24.5466 100.833C24.5921 100.427 24.737 100.037 24.9687 99.6997C25.2003 99.3619 25.5117 99.0859 25.8754 98.8958C26.2391 98.7056 26.644 98.6072 27.0548 98.6092V98.5793Z" fill="#231F20"/>
        <path d="M34.0875 102.469C34.0891 102.586 34.0666 102.704 34.0215 102.813C33.9764 102.922 33.9096 103.02 33.8251 103.103C33.5103 103.308 33.1342 103.397 32.7605 103.357H32.5731V104.805H32.7605C33.1375 104.834 33.5165 104.789 33.8755 104.671C34.2346 104.553 34.5666 104.365 34.8523 104.118C35.0717 103.903 35.2452 103.646 35.3625 103.363C35.4797 103.079 35.5382 102.775 35.5345 102.469V98.7881H37.7838V104.805H39.2383V97.3398H34.125L34.0875 102.469Z" fill="#231F20"/>
        <path d="M45.8734 100.52L44.029 97.3477H42.3496L45.0337 101.969L44.5613 102.782C44.363 102.991 44.1192 103.151 43.8488 103.251C43.5784 103.35 43.2886 103.387 43.0019 103.357H42.8144V104.806H43.0019C43.5466 104.853 44.0943 104.757 44.5903 104.528C45.0862 104.299 45.5132 103.944 45.8284 103.499L49.3822 97.3477H47.7103L45.8734 100.52Z" fill="#231F20"/>
        <path d="M60.0363 97.3477L57.4347 100.924V97.3477H55.9877V100.931L53.3785 97.3477H51.5717L54.2932 101.088L51.5866 104.806H53.3935L55.9877 101.252V104.806H57.4347V101.245L60.0213 104.806H61.8357L59.1291 101.08L61.8432 97.3477H60.0363Z" fill="#231F20"/>
        <path d="M68.2152 99.9232H66.5808V98.7959H70.2545V97.3477H65.1263V104.813H68.2227C68.8729 104.813 69.4965 104.556 69.9563 104.098C70.4161 103.64 70.6744 103.019 70.6744 102.372C70.6744 101.724 70.4161 101.103 69.9563 100.646C69.4965 100.188 68.8729 99.9307 68.2227 99.9307L68.2152 99.9232ZM69.2049 102.364C69.2071 102.496 69.1822 102.627 69.132 102.749C69.0817 102.871 69.007 102.981 68.9125 103.074C68.8225 103.167 68.7141 103.24 68.594 103.289C68.4739 103.338 68.3449 103.361 68.2152 103.357H66.5808V101.371H68.2227C68.4859 101.373 68.7376 101.479 68.923 101.665C69.1083 101.851 69.2124 102.102 69.2124 102.364H69.2049Z" fill="#231F20"/>
        <path d="M77.7821 97.3477H76.7175L73.2237 104.813H74.8281L75.323 103.738H79.1692L79.6715 104.813H81.2909L77.8271 97.4596L77.7821 97.3477ZM78.4944 102.282H76.0127L77.2573 99.6395L78.4944 102.282Z" fill="#231F20"/>
        <path d="M92.7773 97.1383C92.257 97.1291 91.7403 97.2264 91.2592 97.4241C90.7782 97.6219 90.343 97.9159 89.9808 98.288L89.8458 98.4223L90.8805 99.4376L91.0079 99.3107C91.2399 99.0787 91.5156 98.8945 91.8193 98.7689C92.1229 98.6433 92.4485 98.5786 92.7773 98.5786C93.1062 98.5786 93.4317 98.6433 93.7354 98.7689C94.039 98.8945 94.3147 99.0787 94.5467 99.3107C94.8453 99.5992 95.0647 99.959 95.184 100.356H91.8477V101.804H95.184C95.0642 102.196 94.8447 102.551 94.5467 102.834C94.3211 103.076 94.0469 103.267 93.742 103.396C93.4371 103.524 93.1084 103.587 92.7773 103.581C92.1377 103.588 91.521 103.344 91.0604 102.902L90.933 102.782L89.8758 103.775L90.0183 103.909C90.483 104.361 91.052 104.691 91.6752 104.872C92.2984 105.053 92.9567 105.078 93.5921 104.946C94.2275 104.814 94.8205 104.528 95.3188 104.114C95.8171 103.699 96.2056 103.17 96.4498 102.571C96.6941 101.972 96.7867 101.323 96.7196 100.68C96.6524 100.037 96.4276 99.4203 96.0648 98.8843C95.7019 98.3484 95.2123 97.9095 94.6391 97.6063C94.0658 97.3031 93.4264 97.145 92.7773 97.1458V97.1383Z" fill="#231F20"/>
        <path d="M105.328 100.812C105.641 100.434 105.811 99.958 105.808 99.4678C105.806 98.9061 105.581 98.368 105.182 97.9708C104.783 97.5736 104.242 97.3496 103.678 97.3477H100.252V104.813H103.678C104.142 104.814 104.596 104.677 104.982 104.421C105.368 104.165 105.67 103.8 105.848 103.373C106.026 102.947 106.073 102.477 105.983 102.024C105.893 101.57 105.67 101.154 105.343 100.827L105.328 100.812ZM101.706 100.14V98.7959H103.678C103.768 98.7949 103.857 98.8123 103.939 98.847C104.022 98.8817 104.096 98.9329 104.158 98.9975C104.22 99.0592 104.269 99.1325 104.303 99.2132C104.337 99.2939 104.354 99.3804 104.354 99.4678C104.354 99.5552 104.337 99.6417 104.303 99.7224C104.269 99.8031 104.22 99.8764 104.158 99.9381C104.096 100.003 104.022 100.054 103.939 100.089C103.857 100.123 103.768 100.141 103.678 100.14H101.706ZM104.57 102.469C104.571 102.586 104.549 102.702 104.505 102.81C104.46 102.918 104.394 103.017 104.311 103.099C104.228 103.182 104.13 103.247 104.021 103.292C103.912 103.336 103.796 103.358 103.678 103.357H101.706V101.588H103.678C103.795 101.587 103.911 101.609 104.019 101.653C104.127 101.697 104.226 101.761 104.309 101.843C104.392 101.925 104.457 102.023 104.502 102.13C104.547 102.237 104.57 102.353 104.57 102.469V102.469Z" fill="#231F20"/>
        <path d="M112.316 97.3477L108.822 104.813H110.426L110.921 103.738H114.775L115.27 104.813H116.897L113.38 97.3477H112.316ZM114.1 102.282H111.566L112.803 99.6395L114.1 102.282Z" fill="#231F20"/>
        <path d="M124.079 97.3477L121.365 101.073L124.079 104.806H125.886L123.172 101.073L125.886 97.3477H124.079Z" fill="#231F20"/>
        <path d="M121.32 97.3477H119.865V104.806H121.32V97.3477Z" fill="#231F20"/>
        <path d="M131.869 100.52L130.025 97.3477H128.345L131.029 101.969L130.557 102.782C130.36 102.99 130.117 103.15 129.848 103.25C129.579 103.349 129.291 103.386 129.005 103.357H128.81V104.806H128.998C129.542 104.851 130.089 104.755 130.585 104.526C131.081 104.297 131.508 103.943 131.824 103.499L135.37 97.3477H133.698L131.869 100.52Z" fill="#231F20"/>
        <path d="M139.464 97.3477L135.963 104.813H137.567L138.069 103.738H141.916L142.418 104.813H144.037L140.529 97.3477H139.464ZM141.241 102.282H138.759L140.004 99.6395L141.241 102.282Z" fill="#231F20"/>
        <path d="M152.599 97.3477H151.145V103.365H148.506V97.3477H147.051V104.821H152.007V105.888H153.469V103.365H152.599V97.3477Z" fill="#231F20"/>
        <path d="M158.2 101.812V97.3477H156.745V104.806H157.735L161.274 100.214V104.806H162.728V97.3477H161.649L158.2 101.812Z" fill="#231F20"/>
        <path d="M171.561 97.3477L168.119 101.812V97.3477H166.665V104.806H167.647L171.186 100.214V104.806H172.64V97.3477H171.561Z" fill="#231F20"/>
        <path d="M53.0859 22.664C52.2394 22.0403 51.2219 21.6887 50.1694 21.6562C47.8111 21.5919 45.5026 22.338 43.6316 23.7689C42.0646 24.8738 40.5577 26.0533 38.9907 27.1507C38.3472 27.6097 37.6158 27.9321 36.842 28.0978C36.0681 28.2634 35.2683 28.2689 34.4922 28.1137C32.6028 27.7778 31.2158 26.3594 31.2458 24.8439C31.3356 23.9401 31.6992 23.0849 32.2883 22.3916C32.8775 21.6983 33.6644 21.1997 34.5447 20.9619C33.5625 22.3206 32.4529 23.6046 32.8652 25.6651C34.6047 22.5296 37.3637 21.365 40.5426 20.7678C42.888 20.2786 44.9912 18.9967 46.4956 17.1396C46.6628 16.9899 46.789 16.8004 46.8624 16.5889C46.9358 16.3774 46.9541 16.1507 46.9155 15.9302C46.4881 13.504 43.7366 10.8314 41.2924 10.5104C39.523 10.2864 38.4659 11.2569 38.5408 13.0113C38.5516 13.287 38.5969 13.5604 38.6758 13.825C38.7648 14.0514 38.7724 14.3015 38.6973 14.5329C38.6221 14.7642 38.4688 14.9625 38.2634 15.0941C36.773 16.3592 35.0027 17.2547 33.0977 17.707C31.4197 18.0509 29.8042 18.6475 28.3068 19.4763C26.6141 20.3374 25.2023 21.66 24.2359 23.2898C23.2695 24.9196 22.7884 26.7894 22.8486 28.6811C22.8486 32.6975 25.0979 35.5493 28.6142 37.3185C31.4372 38.7005 34.6924 38.923 37.6786 37.9382C42.2671 36.5795 45.2586 33.3918 47.4253 29.3157C48.7524 26.7774 50.1394 24.3586 53.0484 23.3434C53.4833 23.1493 53.4158 22.9253 53.0859 22.664ZM45.4385 15.4076C44.0192 14.1903 42.4015 13.2233 40.6551 12.5484C41.6569 12.423 42.6718 12.6369 43.5368 13.1555C44.4017 13.6741 45.0662 14.4674 45.4235 15.4076H45.4385ZM30.8934 36.7885C27.2571 35.7434 24.5131 32.7497 24.3481 29.6516C24.7305 29.7711 24.813 30.1518 25.0004 30.3981C28.2943 35.1611 32.6978 36.6268 38.2109 34.7952C39.2495 34.4635 40.2537 34.0335 41.2099 33.5112C42.1096 33.0036 42.9943 32.4511 44.089 31.7942C41.1574 35.9823 35.4069 38.0875 30.8784 36.7885H30.8934Z" fill="#FFDA00"/>
        <path d="M41.7353 8.06148C45.439 8.38996 49.0603 12.0107 49.4052 15.7583C49.4052 16.0046 49.2927 16.3481 49.7576 16.363C50.2224 16.3779 50.2449 16.1614 50.3424 15.8777C50.5148 15.3552 50.6947 14.8251 50.8747 14.3025C51.2945 13.0708 51.2945 13.0708 52.5241 13.556C61.626 17.2588 70.728 20.9567 79.8299 24.6496C80.4072 24.8885 80.977 25.1423 80.6771 25.8067C80.5122 26.1949 79.8749 25.8067 79.545 25.7022C70.723 22.2631 61.9035 18.7992 53.0864 15.3104C52.8015 15.1984 52.3367 14.967 52.2392 15.064C51.8092 15.6531 51.5055 16.3239 51.347 17.0349C51.1896 17.4903 51.6994 17.5798 51.9618 17.7441C55.793 20.1629 59.6242 22.5817 63.4854 24.9556C64.9762 25.8562 66.3316 26.9621 67.5115 28.2404C69.9107 30.8608 72.3999 33.399 74.8291 35.9895C75.0024 36.201 75.2226 36.3697 75.4723 36.4824C75.7221 36.595 75.9946 36.6486 76.2686 36.639C78.8177 36.639 89.0818 37.0421 91.6684 37.072C92.3132 37.072 92.5081 36.8928 92.5006 36.2582C92.3844 33.8952 92.3994 31.5275 92.5456 29.1661C92.733 27.1803 92.0807 26.4114 90.2589 25.3588C90.1931 25.3315 90.1324 25.2936 90.0789 25.2468C89.7115 24.9855 89.4941 25.0303 89.3292 25.4932C89.0449 26.3488 88.7145 27.1887 88.3395 28.009C88.2349 28.1868 88.1992 28.3966 88.2393 28.5987C88.2793 28.8009 88.3923 28.9815 88.5569 29.1064C89.0893 29.6588 89.5766 30.2486 90.1164 30.801C90.3224 31.0402 90.4564 31.3326 90.5028 31.6443C90.5492 31.956 90.5062 32.2744 90.3788 32.5629C90.2139 33.1377 89.6291 32.8391 89.1867 32.8466C88.3845 32.8466 87.5823 32.7495 86.78 32.7794C86.1128 32.7794 85.9628 32.5181 85.9778 31.9134C85.9778 30.1068 85.9778 28.2927 85.9778 26.486C85.9778 25.8814 86.0378 25.4484 86.8025 25.5529C87.1774 25.6051 87.2374 25.3588 87.2824 25.0452C87.5298 23.3207 87.3873 23.149 85.6479 23.1266C85.1906 23.1266 84.7407 23.1266 84.2834 23.1266C83.0088 23.037 81.7118 23.2311 80.4597 22.7235C70.9979 18.8962 61.5286 15.0839 52.0518 11.2865C51.5961 11.1198 51.2069 10.8108 50.9422 10.4056C50.2959 9.40743 49.4388 8.56161 48.4305 7.92711C47.4348 7.30837 46.3208 6.90258 45.1591 6.7355C43.9975 6.56843 42.8136 6.64372 41.6828 6.95661C41.2554 7.05366 40.6931 7.21043 40.7681 7.78526C40.8431 8.3601 41.4129 8.03162 41.7353 8.06148ZM62.9981 23.1341C62.6757 23.6865 62.3233 23.1863 62.0459 23.0146C59.7967 21.6783 57.5474 20.3122 55.3432 18.9535L52.8765 17.4604C53.3938 17.1021 53.5813 17.3409 53.7687 17.4604C56.6777 19.1028 59.5817 20.7576 62.4808 22.4249C62.7507 22.5742 63.268 22.6712 62.9981 23.1341ZM80.7146 31.6521C80.5946 31.9582 80.3622 31.9656 80.1298 31.9283C79.3351 31.8014 79.2901 32.2643 79.3051 32.8615C79.3051 33.6752 79.3051 34.4889 79.3051 35.3101C78.7503 35.3101 78.5553 34.9816 78.3154 34.7651C75.0165 31.8686 71.7401 28.9571 68.4412 26.0605C67.7925 25.4484 67.3189 24.6754 67.0692 23.8209C68.1563 24.2987 69.071 24.6794 69.9707 25.0826L79.7924 29.4797C80.1886 29.6642 80.5021 29.9884 80.6724 30.3896C80.8427 30.7908 80.8578 31.2405 80.7146 31.6521V31.6521Z" fill="#FFDA00"/>
        <path d="M83.466 22.1789C84.3149 22.1247 85.11 21.746 85.6852 21.122C86.2603 20.4979 86.5712 19.6768 86.5528 18.8299C86.5344 17.9831 86.1882 17.1761 85.5865 16.5774C84.9848 15.9787 84.174 15.6346 83.3236 15.6169C82.8968 15.5964 82.4702 15.6633 82.0704 15.8134C81.6705 15.9635 81.3059 16.1936 80.9988 16.4895C80.6918 16.7855 80.4489 17.1409 80.2852 17.534C80.1216 17.927 80.0405 18.3493 80.0472 18.7747C80.0789 19.6675 80.4493 20.5152 81.0837 21.1469C81.7181 21.7786 82.5694 22.1474 83.466 22.1789V22.1789Z" fill="#FFDA00"/>
        <path d="M171.546 58.4009C171.201 57.5275 170.556 57.8933 169.964 57.9157C166.553 58.05 167.287 58.5652 167.332 55.2878C167.332 54.3771 167.512 53.5036 167.587 52.6302L167.737 50.9281C167.737 50.5249 167.782 49.4872 167.782 49.4872C167.782 49.4872 166.845 48.8154 166.733 48.4645C167.133 48.7022 167.558 48.8974 168 49.0468H168.045H168.09C168.467 48.9312 168.799 48.7031 169.042 48.3933C169.284 48.0836 169.426 47.7071 169.447 47.3148C169.534 46.7956 169.416 46.2629 169.119 45.8277C168.821 45.3925 168.367 45.0882 167.85 44.9782H167.775C167.775 44.9782 167.467 45.217 166.98 45.5754C167.119 45.1697 167.362 44.807 167.685 44.5228C166.934 43.9111 166.029 43.5183 165.068 43.388V43.388C164.461 43.276 163.868 43.1865 163.329 43.0819C163.009 43.05 162.706 42.9244 162.458 42.7212C162.209 42.5179 162.027 42.246 161.934 41.9397C161.537 40.8205 160.883 39.809 160.024 38.986C159.165 38.163 158.124 37.5511 156.986 37.1992C153.537 36.2069 150.032 35.4192 146.489 34.8402C143.1 34.2205 139.674 33.907 136.255 33.5188C135.924 33.5334 135.596 33.438 135.325 33.2475C135.054 33.057 134.853 32.7822 134.756 32.4662C133.8 30.1657 132.711 27.9223 131.494 25.7473C131.494 25.7473 131 25.0605 130.985 25.0381L130.872 24.8963L130.805 24.8216L130.685 24.7022C130.512 24.5324 130.329 24.3729 130.137 24.2244C128.798 23.2204 127.268 22.499 125.639 22.1042C122.04 21.1475 118.347 20.5892 114.625 20.4394C111.099 20.2204 107.561 20.2479 104.039 20.5216C102.71 20.575 101.402 20.8764 100.185 21.4099C98.6855 22.1565 97.5009 23.127 97.2985 24.956C97.213 25.858 97.055 26.7517 96.8261 27.6286C96.3163 29.48 96.4963 31.5181 95.4766 33.2351C94.8765 34.2579 94.5224 35.4052 94.442 36.587C94.0596 41.1185 93.6922 45.65 93.3323 50.1815C93.3323 50.4652 93.4298 50.831 92.995 50.9654C92.7925 50.7638 92.8525 50.51 92.845 50.2711C92.7175 46.7624 92.5751 43.2611 92.4926 39.7524C92.4926 38.9611 92.1777 38.7894 91.428 38.7744C85.7399 38.66 80.0518 38.5181 74.3637 38.3489C71.1173 38.2593 67.8784 38.11 64.617 38.0055C63.2225 37.9532 61.8205 37.9458 60.426 37.9458C60.1785 37.9458 59.7737 37.8189 59.7587 38.2145C59.7437 38.6102 60.1186 38.4758 60.336 38.4609C61.0408 38.4161 61.3107 38.8491 61.5206 39.4164C61.7117 39.978 61.7656 40.5768 61.678 41.1633C61.4331 43.2984 61.1707 45.4335 60.8908 47.5686C60.8458 47.9195 60.9658 48.4645 60.4709 48.5018C59.9761 48.5391 59.7212 48.1285 59.4813 47.815C59.2414 47.5014 59.4813 47.1058 59.6837 46.7997C59.8273 46.622 59.9056 46.4007 59.9056 46.1726C59.9056 45.9445 59.8273 45.7232 59.6837 45.5455C59.5526 45.3785 59.3684 45.2609 59.1612 45.2121C58.9541 45.1632 58.7365 45.186 58.5441 45.2768C57.6069 45.5754 57.8393 46.2622 58.1317 46.8818C58.3117 47.285 58.6041 47.7553 58.0043 47.8897C57.2545 48.0614 57.4045 48.569 57.3295 49.0617C57.2245 49.8083 57.6594 50.6817 56.9097 51.3013C56.1599 51.921 56.3923 52.7944 56.5648 53.4439C56.7372 54.0934 57.457 53.6007 57.9293 53.6977C58.1787 53.721 58.4297 53.721 58.679 53.6977C60.8833 53.6977 60.8383 53.6977 61.0108 51.4581C61.2132 48.8378 61.7605 46.2995 63.4324 44.157C63.9015 43.5781 64.5373 43.1561 65.2543 42.9476C64.4934 43.7804 63.8061 44.6771 63.2 45.6276C62.0229 47.9718 61.9554 50.51 61.768 53.0333C61.7418 53.1866 61.7776 53.3441 61.8675 53.4713C61.9573 53.5986 62.094 53.6853 62.2478 53.7126C63.17 54.0411 64.0622 54.4592 64.9694 54.7951C65.2543 54.9146 65.5917 55.1236 65.7866 54.7951C65.9816 54.4667 66.4614 54.1755 65.9891 53.7201C65.7716 53.5185 65.8541 53.2722 65.9141 53.0408C66.2431 51.6143 66.8577 50.2686 67.721 49.0841C67.8199 48.9067 67.9562 48.7528 68.1206 48.633C68.285 48.5131 68.4735 48.4301 68.6732 48.3898C68.2792 49.4511 67.961 50.5388 67.721 51.6447C66.7313 57.0721 70.5775 61.4468 76.0732 61.0063C78.0514 60.8956 79.9195 60.0639 81.3214 58.6697C80.5267 58.5428 79.8819 58.4532 79.2371 58.3263C77.6401 58.0202 77.2503 57.3931 77.5652 55.676C77.8576 55.7806 77.8801 56.0269 77.9175 56.2583C78.0525 57.1318 78.5023 57.4901 79.417 57.5797C84.3729 58.0575 89.3212 58.6174 94.277 59.1474C97.9133 59.5431 101.55 59.9985 105.193 60.327C107.862 60.5659 110.517 61.0362 113.208 61.0735C113.718 61.0735 114.175 61.0735 114.22 60.3718C114.265 59.67 113.785 59.7223 113.343 59.6775L90.4533 57.3931C89.0213 57.2438 87.5968 57.0795 86.1648 56.9228C88.1291 56.5943 90.0559 56.9228 91.9903 57.0422C98.9479 57.5399 105.906 58.0376 112.863 58.5353C114.25 58.6323 114.363 58.5353 114.415 57.1691C114.55 54.8474 114.865 52.5406 115.067 50.2263C115.39 46.5981 117.129 44.1122 120.691 42.9998C120.856 42.9476 121.133 42.9998 121.14 42.6863C118.426 40.5288 118.299 36.0496 121.14 34.3101C120.591 35.2169 120.174 36.1973 119.903 37.2216C119.116 40.5362 121.035 42.5967 124.402 42.1115C126.54 41.7621 128.708 41.632 130.872 41.7232C131.217 41.7232 131.622 41.6113 131.914 42.1338C130.722 42.2309 129.583 42.2981 128.45 42.4101C125.451 42.7161 122.452 43.1566 119.693 44.5526C118.992 44.9222 118.39 45.4542 117.939 46.1038C117.487 46.7534 117.199 47.5016 117.099 48.2853C116.559 52.0628 116.387 55.8701 116.102 59.67C115.982 61.3049 116.207 61.4991 117.879 61.4767C118.126 61.4767 118.366 61.4244 118.629 61.4244C119.101 61.4487 119.568 61.3086 119.948 61.028C120.328 60.7474 120.599 60.3439 120.713 59.8865C120.983 59.0429 121.185 58.177 121.463 57.3408C122.006 55.5249 122.711 53.7611 123.57 52.0703C124.139 51.0177 124.694 50.5399 125.444 50.413C125.444 50.413 125.444 50.4801 125.444 50.51C125.362 50.7265 125.279 50.9504 125.189 51.1669C124.193 53.4365 123.99 55.9729 124.612 58.3711C125.744 62.477 128.36 65.2317 132.514 66.038C136.668 66.8443 140.012 65.3362 142.568 61.947C142.668 61.8563 142.747 61.7445 142.798 61.6196C142.849 61.4948 142.872 61.3602 142.864 61.2256C142.856 61.091 142.818 60.9599 142.752 60.8418C142.687 60.7238 142.596 60.6219 142.486 60.5435C140.454 58.4457 139.352 55.8179 138.392 53.1229C138.347 52.996 138.347 52.8467 138.61 52.7272C138.984 53.4364 139.359 54.168 139.757 54.8772C140.904 56.9153 142.133 58.8862 144.06 60.3195C144.533 60.6704 144.81 60.8421 145.087 60.118C145.203 59.8024 145.405 59.525 145.669 59.3167C145.934 59.1084 146.252 58.9775 146.587 58.9384C146.789 58.9011 147.014 58.819 147.179 58.9907C147.344 59.1624 147.142 59.364 147.067 59.5357C146.055 61.7753 146.864 63.0593 149.316 62.9772C152.667 62.8652 156.011 62.701 159.355 62.5218C162.699 62.3426 165.9 62.1336 169.169 61.9022C169.91 61.8709 170.623 61.6099 171.208 61.1556C171.544 60.7875 171.756 60.325 171.817 59.8316C171.877 59.3383 171.783 58.8385 171.546 58.4009ZM73.3291 58.5203C72.4449 58.2874 71.6452 57.8095 71.0228 57.1422C70.4004 56.4749 69.9809 55.6455 69.8128 54.7503C69.183 52.2868 69.6178 50.0695 71.5897 48.3002C71.8527 48.0342 72.1668 47.8238 72.5133 47.6814C72.8599 47.539 73.2317 47.4677 73.6065 47.4716C71.0874 49.3379 70.1577 51.6447 70.8924 54.3397C71.5822 56.8332 72.9092 57.8559 75.9082 58.1098C75.5514 58.3958 75.1258 58.5841 74.6734 58.6561C74.2211 58.7281 73.7577 58.6813 73.3291 58.5203V58.5203ZM74.2063 55.5342C73.5657 55.4576 72.9778 55.1427 72.5606 54.6525C72.1435 54.1624 71.9279 53.5333 71.9571 52.8915C71.9571 51.3984 72.9917 50.1591 74.2513 50.1666C74.9008 50.2217 75.502 50.5307 75.9235 51.0259C76.345 51.5211 76.5524 52.1623 76.5005 52.8093C76.4705 54.3621 75.5184 55.5193 74.2213 55.5118L74.2063 55.5342ZM90.8807 52.1673C89.5236 52.0927 88.1591 52.0777 86.817 51.921C85.7899 51.809 85.37 52.2046 85.1751 53.1602C85.0744 53.9176 85.0218 54.6806 85.0176 55.4446C85.0176 55.7134 85.0176 56.0568 84.6728 56.109C84.3279 56.1613 84.2379 55.8179 84.2154 55.5417C84.1629 54.9295 83.7731 54.8474 83.2707 54.8623C82.6035 54.8623 81.9437 54.8623 81.2764 54.8623C81.0215 54.8623 80.7741 54.7951 80.7666 54.4741C80.7591 54.1531 80.954 53.8993 81.2839 53.9665C82.6709 54.2203 82.4685 53.317 82.4685 52.4734C82.5836 50.2033 82.2812 47.9314 81.5763 45.7695C81.1287 44.4449 80.2905 43.2854 79.171 42.4424C78.0515 41.5994 76.7028 41.112 75.3009 41.0439C73.9964 40.9095 72.7218 41.0812 71.4397 41.0439C71.1174 41.0439 70.7575 41.1857 70.4201 40.8796C71.3273 40.3347 72.3394 40.5139 73.2766 40.4093C75.1154 40.1788 76.9799 40.2519 78.7948 40.6258C83.2408 41.5665 85.58 44.0674 86.2922 48.5765L86.4497 49.4947C86.6896 51.0699 86.6896 51.0624 88.3315 51.152C89.2012 51.1968 90.0709 51.2715 90.9406 51.3312C91.2255 51.3312 91.5479 51.3835 91.5329 51.7642C91.5179 52.1449 91.1806 52.1599 90.8956 52.1449L90.8807 52.1673ZM99.6377 36.9827L98.798 36.9454C98.0482 36.8707 97.2985 36.7886 96.5113 36.7214C96.1439 36.6841 95.8965 36.5049 95.9265 36.1317C95.9565 35.7584 96.2638 35.7211 96.5562 35.7435C97.6359 35.8181 98.708 35.8928 99.7877 35.9824C99.8585 35.9802 99.9289 35.9927 99.9946 36.0191C100.06 36.0455 100.12 36.0853 100.169 36.1359C100.218 36.1865 100.257 36.2467 100.281 36.3128C100.306 36.379 100.317 36.4495 100.312 36.5199C100.32 36.9603 99.9826 36.9827 99.6527 36.9603L99.6377 36.9827ZM112.481 33.8099C108.515 33.8622 104.549 33.7129 100.597 33.4143C100.376 33.3999 100.16 33.3391 99.9638 33.2359C99.7676 33.1326 99.5956 32.9892 99.459 32.8151C99.3223 32.641 99.2242 32.4401 99.171 32.2256C99.1178 32.011 99.1108 31.7877 99.1504 31.5703C99.4803 29.4576 99.9001 27.3524 100.32 25.2397C100.383 24.8362 100.6 24.4724 100.925 24.2236C101.25 23.9748 101.659 23.8602 102.067 23.9034C104.818 23.9034 107.578 24.0377 110.314 24.1273C110.671 24.204 111.019 24.3218 111.349 24.4782C110.209 25.0306 109.744 25.7324 110.059 26.7178C110.194 27.1583 110.419 27.5539 110.966 27.6137C111.194 27.6305 111.421 27.5772 111.617 27.461C111.812 27.3448 111.968 27.1713 112.061 26.9642C112.181 26.7775 112.061 26.3893 112.406 26.4043C112.751 26.4192 112.721 26.8223 112.803 27.0538C113.397 28.5061 113.871 30.0041 114.22 31.533C114.475 32.8544 113.815 33.7651 112.496 33.7875L112.481 33.8099ZM127.941 32.5483C127.138 32.5483 126.329 32.5483 125.751 32.5483C123.972 32.5212 122.193 32.6485 120.436 32.929C119.725 33.0351 118.999 32.9119 118.363 32.5775C117.728 32.243 117.217 31.7148 116.904 31.0701C116.35 29.913 115.78 28.7559 115.255 27.5913C114.967 26.9715 114.729 26.33 114.543 25.6727C114.451 25.3498 114.434 25.0106 114.492 24.6801C114.549 24.3496 114.681 24.0362 114.877 23.7632C115.073 23.4901 115.327 23.2644 115.623 23.1026C115.918 22.9408 116.246 22.8471 116.582 22.8284C118.598 22.6566 120.624 22.6566 122.64 22.8284C123.163 22.8473 123.661 23.0603 124.034 23.4256C126.411 25.7249 127.671 28.6514 128.75 31.6823C128.998 32.3094 128.51 32.5109 127.956 32.5259L127.941 32.5483ZM130.227 32.6901C129.951 32.6632 129.689 32.552 129.479 32.3716C129.268 32.1912 129.118 31.9505 129.05 31.6823C128.031 28.7932 126.838 25.9937 124.724 23.6869C124.612 23.56 124.439 23.4256 124.529 23.239C124.619 23.0523 124.882 23.1046 125.077 23.1344C126.244 23.2792 127.39 23.565 128.488 23.9855C129.958 24.5752 131.153 25.691 131.839 27.1135C132.417 28.3154 134.036 31.5405 134.209 31.9809C134.471 32.6603 134.254 33.0783 133.459 33.0111C132.394 32.8992 131.314 32.8021 130.242 32.6677L130.227 32.6901ZM129.77 62.4098C128.516 61.5784 127.549 60.3836 126.999 58.987C126.449 57.5904 126.344 56.0594 126.696 54.601C127.243 52.2644 129.44 49.7485 131.779 49.5918C128.57 51.488 127.161 54.2427 128.083 57.841C128.968 61.3049 131.457 62.9399 135.116 62.9324C133.939 63.776 131.449 63.4923 129.785 62.3874L129.77 62.4098ZM133.211 59.0803C132.803 59.0725 132.4 58.9846 132.026 58.8216C131.652 58.6586 131.314 58.4237 131.031 58.1303C130.748 57.837 130.527 57.4909 130.378 57.1121C130.23 56.7332 130.158 56.3289 130.167 55.9224C130.168 55.1025 130.484 54.3139 131.05 53.7183C131.616 53.1228 132.389 52.7655 133.211 52.7198C134.021 52.7637 134.783 53.1146 135.341 53.7005C135.898 54.2865 136.21 55.0628 136.21 55.8701C136.228 56.2755 136.165 56.6803 136.024 57.061C135.883 57.4417 135.668 57.7906 135.39 58.0874C135.112 58.3842 134.778 58.6229 134.406 58.7895C134.035 58.9561 133.634 59.0473 133.226 59.0579L133.211 59.0803ZM165.113 51.2939C164.262 51.8479 163.266 52.1388 162.249 52.13C159.638 52.3096 157.015 52.1742 154.437 51.7268C153.917 51.6326 153.427 51.4189 153.005 51.1026C152.584 50.7864 152.242 50.3764 152.007 49.9053C153.897 50.2039 155.531 50.5249 157.188 50.6519C159.721 50.9286 162.279 50.8532 164.791 50.4279C165.023 50.3831 165.338 50.2487 165.465 50.4951C165.593 50.7414 165.368 51.0848 165.113 51.2939ZM165.061 54.0038C164.105 54.5859 163.001 54.8814 161.882 54.8548C159.273 54.9972 156.657 54.8621 154.077 54.4517C153.552 54.3603 153.053 54.1611 152.61 53.8667C152.167 53.5724 151.791 53.1894 151.505 52.7422C152.239 52.6851 152.976 52.7661 153.679 52.981C157.338 53.4887 160.997 53.8246 164.678 53.1602C164.941 53.108 165.286 52.9512 165.428 53.2423C165.57 53.5335 165.308 53.8172 165.061 53.9889V54.0038ZM167.16 47.0087C167.205 46.8492 167.293 46.7053 167.416 46.5933C167.538 46.4813 167.69 46.4056 167.853 46.3748C168.017 46.3439 168.185 46.3592 168.341 46.4189C168.496 46.4785 168.631 46.5802 168.731 46.7124C168.831 46.8445 168.893 47.002 168.908 47.1669C168.923 47.3318 168.891 47.4977 168.817 47.6457C168.742 47.7938 168.628 47.9181 168.486 48.0048C168.344 48.0914 168.181 48.1369 168.015 48.136C167.542 48.1211 167.16 47.6134 167.16 46.9938V47.0087ZM165.48 47.9419C165.593 48.2181 165.39 48.4048 165.226 48.5765C164.676 49.0671 163.975 49.3567 163.239 49.3977C160.439 49.7568 157.597 49.628 154.842 49.0169C153.972 48.8452 153.455 48.1883 152.787 47.2178C155.956 47.9812 159.219 48.278 162.474 48.0987C163.269 48.0539 164.063 47.927 164.858 47.8449C165.076 47.8075 165.338 47.5612 165.48 47.927V47.9419ZM142.591 41.9696C141.511 41.8726 140.431 41.8203 139.352 41.7307C139.134 41.7307 138.849 41.7755 138.752 41.4694C138.804 41.2828 138.954 41.2828 139.082 41.2753C142.883 41.1367 146.689 41.3316 150.456 41.8576C151.277 41.947 152.056 42.2646 152.704 42.7742C153.353 43.2838 153.844 43.9648 154.122 44.7393C154.392 45.4858 155.044 45.2768 155.524 45.3365C158.005 45.6724 160.502 45.9263 163.021 46.2174C163.186 46.2174 163.351 46.2771 163.516 46.307C163.516 46.4414 163.516 46.5683 163.516 46.7027H155.704H155.074C153.237 46.7027 153.215 46.7027 152.667 45.0677C152.495 44.5367 152.177 44.0642 151.749 43.704C151.321 43.3437 150.8 43.1101 150.246 43.0297C147.722 42.4931 145.164 42.1265 142.591 41.9323V41.9696ZM148.754 43.6045C147.082 45.6202 147.202 47.6657 148.071 50.0023C146.055 48.5466 145.98 44.575 148.754 43.5672V43.6045ZM148.401 49.2334C147.954 48.5745 147.735 47.788 147.779 46.9938C147.715 46.1976 147.936 45.4047 148.401 44.7542C148.507 44.5798 148.653 44.4334 148.828 44.3276C149.002 44.2217 149.2 44.1595 149.404 44.1463C149.608 44.1331 149.813 44.1693 150 44.2518C150.187 44.3342 150.351 44.4605 150.478 44.6198C150.985 45.3156 151.257 46.153 151.257 47.0125C151.257 47.8719 150.985 48.7093 150.478 49.4051C150.346 49.5627 150.177 49.6857 149.987 49.7632C149.796 49.8407 149.589 49.8705 149.384 49.8499C149.179 49.8292 148.982 49.7588 148.811 49.6448C148.639 49.5309 148.499 49.3768 148.401 49.1961V49.2334ZM151.4 61.2378C151.301 61.2244 151.211 61.1758 151.145 61.101C151.079 61.0262 151.043 60.9302 151.043 60.8309C151.043 60.7316 151.079 60.6356 151.145 60.5608C151.211 60.486 151.301 60.4374 151.4 60.424C151.481 60.4526 151.551 60.5057 151.6 60.5757C151.649 60.6458 151.675 60.7294 151.675 60.8149C151.674 60.9004 151.646 60.9834 151.596 61.0526C151.545 61.1217 151.474 61.1734 151.393 61.2004L151.4 61.2378ZM156.791 61.1034C156.692 61.09 156.601 61.0414 156.536 60.9666C156.47 60.8918 156.434 60.7958 156.434 60.6965C156.434 60.5972 156.47 60.5012 156.536 60.4264C156.601 60.3516 156.692 60.303 156.791 60.2896C156.872 60.3183 156.942 60.3713 156.991 60.4414C157.04 60.5114 157.066 60.595 157.065 60.6805C157.064 60.766 157.037 60.8491 156.986 60.9182C156.936 60.9873 156.865 61.039 156.783 61.066L156.791 61.1034ZM163.209 60.8943C163.11 60.881 163.019 60.8324 162.954 60.7576C162.888 60.6828 162.852 60.5868 162.852 60.4875C162.852 60.3882 162.888 60.2922 162.954 60.2174C163.019 60.1426 163.11 60.094 163.209 60.0806C163.29 60.1092 163.36 60.1623 163.409 60.2323C163.458 60.3024 163.484 60.386 163.483 60.4715C163.482 60.557 163.455 60.64 163.404 60.7092C163.354 60.7783 163.283 60.83 163.201 60.857L163.209 60.8943ZM165.098 56.5196C164.204 57.0877 163.16 57.3787 162.099 57.3558C158.93 57.5802 155.746 57.4449 152.607 56.9526C152.082 56.8736 151.582 56.6739 151.147 56.3695C150.713 56.065 150.355 55.664 150.103 55.1983C151.415 55.3774 152.57 55.5641 153.724 55.6984C157.394 56.1875 161.113 56.1875 164.783 55.6984C165.016 55.6611 165.323 55.5043 165.458 55.7432C165.593 55.9821 165.338 56.3255 165.098 56.5196ZM169.139 60.5435C169.04 60.5301 168.95 60.4815 168.884 60.4067C168.818 60.3319 168.782 60.2359 168.782 60.1366C168.782 60.0373 168.818 59.9413 168.884 59.8665C168.95 59.7917 169.04 59.7431 169.139 59.7297C169.226 59.7537 169.303 59.8054 169.357 59.8769C169.412 59.9483 169.441 60.0356 169.441 60.1254C169.441 60.2152 169.412 60.3025 169.357 60.3739C169.303 60.4454 169.226 60.4971 169.139 60.5211V60.5435Z" fill="#231F20"/>
    </g>
    <defs>
        <clipPath id="clip0_332_474">
            <rect width="195" height="112" fill="white"/>
        </clipPath>
    </defs>
</svg>
