<svg width="160" height="32" viewBox="0 0 160 32" fill="none" xmlns="http://www.w3.org/2000/svg">
<g clip-path="url(#clip0_205_4212)">
<path d="M16.6004 6.5362C16.6299 7.55273 16.4191 8.56194 15.9852 9.48254C15.6033 10.2527 15.0345 10.9159 14.3304 11.4121C13.5999 11.9186 12.7762 12.2766 11.9066 12.4656C10.931 12.681 9.93448 12.7878 8.93526 12.7842H6.60374C6.38818 12.7828 6.17985 12.8614 6.01933 13.0047C5.93505 13.082 5.86921 13.1772 5.82664 13.2832C5.78406 13.3892 5.76581 13.5033 5.77325 13.6172V18.7258C5.76857 18.9079 5.69385 19.0813 5.56448 19.2101C5.43512 19.3389 5.26101 19.4134 5.07811 19.418H1.11022C1.0192 19.4183 0.929107 19.4 0.845507 19.3641C0.761907 19.3283 0.686582 19.2757 0.624222 19.2097C0.555399 19.1497 0.500923 19.075 0.464739 18.9913C0.428555 18.9076 0.411577 18.8169 0.415064 18.7258V2.56079C0.406276 2.21981 0.474079 1.88118 0.613502 1.56962C0.752924 1.25805 0.960446 0.981419 1.22094 0.759912C1.45117 0.565493 1.71341 0.412149 1.99607 0.306635C2.26335 0.205601 2.54681 0.153714 2.8327 0.153499H8.93526C9.94039 0.148094 10.9424 0.265337 11.9189 0.502635C12.8051 0.701945 13.642 1.07694 14.3796 1.60523C15.0801 2.12072 15.6422 2.8003 16.016 3.58375C16.4351 4.5104 16.635 5.52048 16.6004 6.5362ZM11.2176 6.5362C11.2537 6.21131 11.216 5.88249 11.1072 5.57407C10.9985 5.26565 10.8215 4.9855 10.5894 4.75437C10.3573 4.52323 10.0759 4.34701 9.76619 4.23875C9.45644 4.13048 9.12621 4.09295 8.79992 4.12891H4.11228C4.28286 4.13229 4.45151 4.16547 4.61057 4.22691C4.79768 4.29365 4.97231 4.39095 5.12732 4.51481C5.28612 4.65342 5.42117 4.81687 5.52718 4.99873C5.63863 5.19697 5.69592 5.42085 5.69329 5.64802V8.0247C5.6915 8.1396 5.71414 8.25357 5.75973 8.35914C5.80532 8.46471 5.87282 8.55949 5.95781 8.63724C6.12558 8.79007 6.34563 8.87331 6.57299 8.86999H8.81838C9.46909 8.90834 10.1085 8.68804 10.5962 8.25745C10.8158 8.02534 10.9845 7.75025 11.0914 7.44969C11.1984 7.14913 11.2414 6.8297 11.2176 6.51171V6.5362Z" fill="#231F20"/>
<path d="M35.0806 19.4425H31.1681C30.9307 19.453 30.696 19.3889 30.4972 19.2591C30.2985 19.1294 30.1458 18.9407 30.0608 18.7197L27.231 13.2068C27.1603 13.0704 27.0524 12.9566 26.9196 12.8785C26.7868 12.8005 26.6346 12.7614 26.4805 12.7658H22.8448C23.0525 12.7564 23.2595 12.7952 23.4496 12.8792C23.6396 12.9632 23.8074 13.09 23.9398 13.2497C24.1867 13.5181 24.3286 13.8659 24.3397 14.2298V18.7871C24.3436 18.8747 24.3287 18.9622 24.2958 19.0436C24.2629 19.1249 24.2128 19.1983 24.149 19.2588C24.0837 19.3235 24.0058 19.3742 23.9201 19.4079C23.8344 19.4417 23.7427 19.4576 23.6507 19.4548H19.8489C19.758 19.4543 19.6681 19.4357 19.5846 19.3999C19.5011 19.3641 19.4257 19.3119 19.3629 19.2465C19.2973 19.1891 19.2447 19.1184 19.2086 19.0392C19.1725 18.96 19.1538 18.8741 19.1537 18.7871V2.5853C19.1462 2.26786 19.2064 1.95243 19.3305 1.65992C19.4546 1.36741 19.6397 1.10448 19.8735 0.888541C20.0967 0.670026 20.3611 0.497499 20.6513 0.380829C20.9416 0.264159 21.2522 0.205644 21.5652 0.208626H27.4525C28.4463 0.204158 29.4373 0.315171 30.4053 0.539405C31.2872 0.738854 32.1225 1.10481 32.866 1.61747C33.5859 2.11944 34.1728 2.78786 34.5762 3.56536C35.019 4.48297 35.2302 5.49438 35.1914 6.51171C35.2061 7.55416 34.9474 8.5824 34.4408 9.4948C33.9131 10.4026 33.1448 11.1485 32.2201 11.6509C32.1564 11.6822 32.1017 11.7289 32.0609 11.7867C32.02 11.8445 31.9944 11.9115 31.9863 11.9817C31.9696 12.0867 31.9938 12.1941 32.054 12.2819L35.5605 18.585C35.6122 18.677 35.6417 18.7797 35.6466 18.8851C35.6467 18.9599 35.6302 19.0339 35.5983 19.1017C35.5664 19.1694 35.5199 19.2293 35.462 19.2771C35.3606 19.3785 35.2242 19.4376 35.0806 19.4425ZM29.8639 6.48107C29.8847 6.16141 29.8349 5.8411 29.718 5.54267C29.6011 5.24424 29.4199 4.97493 29.1873 4.75369C28.695 4.33929 28.066 4.12108 27.4217 4.14115H22.6418C22.8508 4.13333 23.059 4.17155 23.2514 4.25309C23.4439 4.33462 23.6159 4.45745 23.7552 4.61282C24.0129 4.88035 24.16 5.23457 24.1674 5.60514V7.84705C24.1668 7.95411 24.1877 8.0602 24.2289 8.15908C24.2701 8.25797 24.3308 8.34766 24.4073 8.42285C24.4842 8.50823 24.5794 8.57517 24.686 8.61866C24.7925 8.66215 24.9076 8.68108 25.0225 8.67399H27.434C28.0673 8.70234 28.691 8.51191 29.1995 8.13495C29.4302 7.9284 29.61 7.67183 29.7252 7.38507C29.8404 7.0983 29.8879 6.78901 29.8639 6.48107Z" fill="#231F20"/>
<path d="M46.3748 19.7739C43.7501 19.7739 41.679 19.1388 40.1616 17.8688C38.6441 16.5988 37.8382 14.7285 37.7439 12.2579C37.7439 11.7434 37.7439 10.9471 37.7439 9.88128C37.7439 8.81545 37.7439 8.01301 37.7439 7.48009C37.8177 5.02992 38.6277 3.15554 40.1739 1.85694C41.72 0.558349 43.787 -0.101164 46.3748 -0.121582C48.9463 -0.121582 50.9969 0.537931 52.5266 1.85694C54.0563 3.17595 54.8643 5.05034 54.9504 7.48009C54.9873 8.54592 55.0058 9.34836 55.0058 9.88128C55.0058 10.4142 55.0058 11.2289 54.9504 12.2579C54.8602 14.7081 54.0604 16.5784 52.5512 17.8688C51.042 19.1593 48.9832 19.7943 46.3748 19.7739ZM46.3748 15.6269C46.7978 15.6475 47.2205 15.5808 47.6164 15.4311C48.0123 15.2815 48.3729 15.052 48.6756 14.7571C49.3106 14.0175 49.6384 13.0645 49.5922 12.0926C49.6291 11.0206 49.6476 10.2549 49.6476 9.79551C49.6476 9.3361 49.6476 8.57043 49.5922 7.55973C49.6391 6.58765 49.3112 5.63448 48.6756 4.89516C48.3729 4.60028 48.0123 4.37082 47.6164 4.22115C47.2205 4.07148 46.7978 4.00481 46.3748 4.02534C45.947 4.00313 45.5193 4.0689 45.1181 4.21855C44.717 4.3682 44.3511 4.59852 44.0433 4.89516C43.4099 5.63572 43.0823 6.58801 43.1267 7.55973C43.1267 8.07427 43.1267 8.82157 43.1267 9.79551C43.1267 10.7695 43.1267 11.5596 43.1267 12.0926C43.0836 13.0641 43.411 14.0159 44.0433 14.7571C44.3511 15.0538 44.717 15.2841 45.1181 15.4337C45.5193 15.5834 45.947 15.6491 46.3748 15.6269Z" fill="#231F20"/>
<path d="M58.1681 18.7198V2.56089C58.1569 2.18796 58.2371 1.81793 58.4018 1.48281C58.5575 1.19717 58.7663 0.943576 59.017 0.735503C59.2496 0.537551 59.5193 0.387631 59.8106 0.294471C60.0662 0.206847 60.3339 0.15933 60.6042 0.153598H67.4265C68.3212 0.147697 69.2141 0.235981 70.0902 0.416987C70.8725 0.571173 71.6166 0.877133 72.2802 1.31743C72.9149 1.7546 73.4256 2.34746 73.7628 3.03868C74.1571 3.86181 74.347 4.76726 74.3165 5.67874C74.3199 6.44087 74.1066 7.18841 73.7013 7.83489C73.2979 8.48508 72.7292 9.01761 72.0526 9.37851C72.8805 9.70766 73.5706 10.3084 74.0089 11.0814C74.4686 11.8348 74.7132 12.6989 74.7163 13.5806C74.7453 14.5156 74.5491 15.4439 74.1442 16.288C73.7887 17.0156 73.2609 17.6462 72.6063 18.1256C71.9289 18.6117 71.1616 18.9593 70.3486 19.1486C69.4526 19.3662 68.5332 19.4732 67.611 19.4671H58.8632C58.7721 19.4681 58.6818 19.4501 58.5981 19.4143C58.5144 19.3784 58.4391 19.3255 58.3772 19.2589C58.3005 19.1931 58.2413 19.1095 58.2048 19.0154C58.1683 18.9214 58.1557 18.8199 58.1681 18.7198ZM66.8236 7.77976C67.3779 7.80492 67.9218 7.62368 68.3492 7.27136C68.5521 7.08374 68.7099 6.85309 68.8111 6.59649C68.9122 6.33989 68.9541 6.0639 68.9337 5.78899C68.9521 5.51689 68.906 5.24427 68.7992 4.99316C68.6923 4.74205 68.5276 4.51947 68.3185 4.3434C67.888 4.00773 67.3514 3.83611 66.8051 3.85948H61.8161C62.2095 3.86518 62.586 4.0196 62.8693 4.29145C63.1526 4.56329 63.3214 4.93224 63.3417 5.32347V6.97733C63.3534 7.17285 63.4315 7.35862 63.5632 7.50413C63.6363 7.59544 63.7303 7.66806 63.8373 7.716C63.9443 7.76394 64.0612 7.78579 64.1783 7.77976H66.8236ZM67.0758 15.6816C67.6674 15.707 68.2471 15.5102 68.6999 15.1303C68.9124 14.9291 69.0777 14.6837 69.1841 14.4116C69.2904 14.1395 69.3351 13.8474 69.3151 13.5561C69.3316 13.2633 69.2853 12.9704 69.1792 12.6968C69.0731 12.4233 68.9097 12.1753 68.6999 11.9696C68.2645 11.5621 67.6854 11.342 67.0881 11.357H61.8468C62.2402 11.3627 62.6167 11.5172 62.9 11.789C63.1833 12.0608 63.3522 12.4298 63.3725 12.821V14.8363C63.3786 15.037 63.4499 15.2304 63.5755 15.3876C63.649 15.4785 63.743 15.5509 63.8499 15.5988C63.9568 15.6467 64.0736 15.6687 64.1906 15.6632L67.0758 15.6816Z" fill="#FFDA00"/>
<path d="M77.6754 12.1716V2.61587C77.6683 2.261 77.7486 1.9098 77.9092 1.59293C78.0662 1.30818 78.2748 1.05482 78.5244 0.845622C78.7525 0.646801 79.0152 0.491114 79.2995 0.386214C79.5622 0.292701 79.8387 0.243016 80.1177 0.23919H82.2031C82.3919 0.232724 82.5755 0.301005 82.7137 0.429078C82.7833 0.492511 82.8381 0.57036 82.8742 0.657137C82.9104 0.743914 82.927 0.837516 82.9229 0.931368V12.1164C82.8725 13.0055 83.1334 13.8844 83.6611 14.6034C84.3209 15.191 85.1751 15.5158 86.0603 15.5158C86.9455 15.5158 87.7997 15.191 88.4595 14.6034C88.9827 13.8825 89.2412 13.0045 89.1915 12.1164V2.58525C89.184 2.22962 89.2665 1.87782 89.4315 1.56229C89.5867 1.27632 89.7955 1.02263 90.0466 0.814983C90.2742 0.619882 90.5374 0.470155 90.8217 0.373951C91.0813 0.286133 91.3535 0.240627 91.6276 0.23919H93.7069C93.8973 0.233733 94.0825 0.301769 94.2237 0.429078C94.2912 0.493809 94.3442 0.572027 94.3792 0.658595C94.4141 0.745162 94.4303 0.838125 94.4267 0.931368V12.1716C94.4496 13.3302 94.2405 14.4817 93.8115 15.5589C93.45 16.4628 92.8762 17.2673 92.1382 17.905C91.3703 18.5455 90.4752 19.0172 89.5114 19.2893C88.3969 19.6026 87.243 19.7552 86.0849 19.7426C84.9318 19.7536 83.7828 19.6051 82.6707 19.3016C81.7 19.0423 80.7974 18.5763 80.0254 17.9356C79.2744 17.2943 78.6881 16.4836 78.3152 15.5712C77.8754 14.4921 77.6578 13.336 77.6754 12.1716Z" fill="#FFDA00"/>
<path d="M105.758 9.35437C106.082 9.3537 106.403 9.42047 106.699 9.55039C106.978 9.66996 107.244 9.81774 107.493 9.99142C107.71 10.1407 107.916 10.3066 108.108 10.4876L108.465 10.849L114.266 18.4997C114.308 18.5428 114.34 18.595 114.36 18.6523C114.379 18.7096 114.385 18.7705 114.377 18.8304C114.377 18.9036 114.363 18.9762 114.335 19.0437C114.306 19.1111 114.264 19.172 114.21 19.2225C114.088 19.3298 113.931 19.3887 113.768 19.3878H109.461C109.247 19.3978 109.034 19.3549 108.841 19.263C108.648 19.1711 108.481 19.033 108.354 18.861C107.48 17.7401 106.699 16.7233 105.992 15.7983L104.964 14.4997L104.245 13.5748L103.679 12.8397C103.519 12.6356 103.42 12.5069 103.383 12.4538C103.341 12.4287 103.296 12.4101 103.248 12.3987C103.156 12.3987 103.107 12.4538 103.107 12.5641V18.6895C103.112 18.7792 103.098 18.869 103.065 18.9526C103.032 19.0363 102.981 19.1117 102.916 19.1735C102.848 19.2359 102.769 19.2843 102.682 19.3158C102.596 19.3474 102.504 19.3614 102.411 19.3572H98.7203C98.5426 19.3599 98.3707 19.2941 98.2405 19.1735C98.1717 19.1134 98.1172 19.0388 98.081 18.955C98.0448 18.8713 98.0278 18.7806 98.0313 18.6895V2.53064C98.0329 1.91879 98.2708 1.33098 98.6957 0.889005C98.9112 0.648223 99.1771 0.457567 99.4748 0.33054C99.7725 0.203513 100.095 0.143236 100.418 0.153963H102.411C102.504 0.150659 102.597 0.166333 102.684 0.200042C102.771 0.233751 102.85 0.284768 102.916 0.349963C102.98 0.415268 103.03 0.493014 103.063 0.578358C103.096 0.663703 103.111 0.754846 103.107 0.846141V6.42641C103.105 6.44538 103.107 6.46455 103.113 6.48251C103.12 6.50047 103.13 6.51679 103.144 6.53027C103.157 6.54375 103.174 6.55407 103.192 6.56048C103.21 6.56688 103.229 6.56921 103.248 6.5673C103.273 6.56815 103.298 6.56368 103.322 6.55418C103.345 6.54468 103.366 6.53036 103.383 6.51218L107.991 0.680742C108.108 0.504719 108.27 0.363036 108.46 0.270404C108.651 0.177772 108.862 0.137576 109.074 0.153963H113.294C113.447 0.15603 113.594 0.215004 113.706 0.319343C113.759 0.368893 113.801 0.42873 113.829 0.495117C113.858 0.561503 113.872 0.633023 113.872 0.705249C113.872 0.889012 113.835 1.00539 113.761 1.04214C112.82 2.26723 111.971 3.38206 111.208 4.35601C110.747 4.96855 110.39 5.41572 110.126 5.76487C109.861 6.11402 109.621 6.43866 109.394 6.73268C109.166 7.0267 108.969 7.27172 108.809 7.46161C108.649 7.6515 108.563 7.76175 108.545 7.78013C108.526 7.7985 108.416 7.95164 108.268 8.12315C108.097 8.32664 107.9 8.50776 107.683 8.66219C107.427 8.86197 107.143 9.02487 106.841 9.14611C106.499 9.29267 106.13 9.36373 105.758 9.35437Z" fill="#FFDA00"/>
<path d="M131.731 13.6357C131.764 14.6565 131.478 15.6624 130.913 16.5147C130.394 17.2851 129.706 17.9281 128.901 18.3952C128.057 18.8846 127.139 19.2342 126.182 19.4304C125.226 19.6362 124.25 19.743 123.272 19.7489C122.326 19.7453 121.383 19.653 120.455 19.4733C119.519 19.2997 118.615 18.988 117.772 18.5483C116.978 18.1285 116.284 17.5436 115.736 16.8332C115.168 16.0672 114.852 15.145 114.832 14.1931C114.83 14.1145 114.846 14.0365 114.878 13.9645C114.91 13.8925 114.957 13.8284 115.016 13.7766C115.133 13.6679 115.287 13.6086 115.447 13.6112H119.138C119.235 13.611 119.332 13.6213 119.427 13.6418C119.508 13.6582 119.587 13.6849 119.661 13.7215C119.834 13.8322 119.994 13.9639 120.135 14.1135C120.262 14.3943 120.444 14.6471 120.67 14.8574C120.896 15.0677 121.161 15.2313 121.451 15.3386C122.043 15.5519 122.667 15.6598 123.297 15.6571C123.615 15.6548 123.934 15.6364 124.25 15.602C124.594 15.5695 124.932 15.489 125.253 15.3631C125.55 15.2481 125.819 15.0705 126.04 14.8424C126.266 14.5979 126.386 14.2741 126.373 13.942C126.388 13.729 126.345 13.5158 126.248 13.3256C126.15 13.1354 126.002 12.9757 125.819 12.8639C125.453 12.6439 125.063 12.4671 124.656 12.3371C124.287 12.2114 123.911 12.1071 123.53 12.0247C123.094 11.9206 122.589 11.8165 122.017 11.7062C121.184 11.5424 120.362 11.3255 119.556 11.0569C118.8 10.8089 118.084 10.4496 117.434 9.99108C116.815 9.55156 116.302 8.98031 115.933 8.31883C115.494 7.4302 115.303 6.44019 115.381 5.45285C115.459 4.46552 115.803 3.51731 116.376 2.70792C117.071 1.82293 117.984 1.13274 119.027 0.704904C120.328 0.205563 121.713 -0.0378351 123.106 -0.0117809C123.743 -0.0106107 124.378 0.0405937 125.007 0.141355C125.661 0.238044 126.302 0.404384 126.92 0.637515C127.536 0.865295 128.119 1.17213 128.655 1.55022C129.19 1.92693 129.66 2.38835 130.045 2.91618C130.626 3.61249 130.983 4.46583 131.073 5.36636C131.065 5.52151 130.999 5.66821 130.888 5.77677C130.839 5.83613 130.778 5.88436 130.709 5.91819C130.64 5.95201 130.565 5.97064 130.488 5.97279H126.606C126.424 5.97675 126.244 5.93299 126.084 5.84592C125.925 5.75884 125.791 5.6315 125.696 5.47663C125.548 5.04597 125.24 4.68841 124.835 4.47818C124.3 4.21269 123.709 4.08027 123.112 4.09227C122.83 4.09253 122.549 4.11094 122.269 4.1474C121.991 4.18154 121.722 4.26669 121.476 4.39855C121.244 4.52026 121.044 4.69437 120.891 4.90695C120.781 5.07869 120.71 5.27195 120.682 5.47362C120.653 5.67529 120.669 5.88067 120.727 6.07585C120.785 6.27102 120.885 6.45142 121.02 6.60485C121.154 6.75828 121.32 6.88113 121.507 6.96511C122.5 7.39616 123.544 7.70273 124.613 7.87779C125.481 8.04318 126.348 8.24532 127.203 8.49034C128.013 8.70047 128.787 9.03086 129.498 9.47041C130.157 9.88826 130.711 10.4522 131.116 11.1182C131.548 11.8856 131.761 12.7563 131.731 13.6357Z" fill="#FFDA00"/>
<path d="M134.45 18.7505V2.58542C134.44 2.26318 134.499 1.94257 134.623 1.64481C134.747 1.34704 134.934 1.07889 135.169 0.858041C135.622 0.42067 136.23 0.17859 136.861 0.184238H139.082C139.174 0.176612 139.267 0.189725 139.353 0.222597C139.439 0.25547 139.517 0.307257 139.58 0.374126C139.645 0.439129 139.696 0.516663 139.73 0.601979C139.764 0.687295 139.78 0.778596 139.777 0.870285V18.7505C139.778 18.8382 139.761 18.9253 139.727 19.0064C139.693 19.0874 139.643 19.1608 139.58 19.2221C139.52 19.2945 139.443 19.3521 139.357 19.3903C139.271 19.4286 139.176 19.4465 139.082 19.4426H135.145C134.962 19.438 134.788 19.3636 134.658 19.2347C134.529 19.1059 134.454 18.9326 134.45 18.7505Z" fill="#FFDA00"/>
<path d="M159.537 19.4425H155.625C155.386 19.4534 155.151 19.3895 154.951 19.2598C154.751 19.1301 154.597 18.9412 154.511 18.7197L151.681 13.2068C151.611 13.0699 151.504 12.9557 151.371 12.8776C151.238 12.7995 151.085 12.7607 150.931 12.7658H147.295C147.503 12.7559 147.71 12.7946 147.9 12.8786C148.09 12.9626 148.258 13.0897 148.39 13.2497C148.638 13.5179 148.782 13.8654 148.796 14.2298V18.7871C148.799 18.8752 148.784 18.9629 148.75 19.0443C148.716 19.1257 148.664 19.1989 148.599 19.2588C148.534 19.3235 148.456 19.3743 148.371 19.408C148.285 19.4417 148.193 19.4576 148.101 19.4548H144.299C144.209 19.4537 144.119 19.4347 144.035 19.399C143.952 19.3632 143.877 19.3114 143.813 19.2465C143.749 19.1877 143.698 19.1168 143.662 19.0379C143.626 18.959 143.606 18.8737 143.604 18.7871V2.58532C143.596 2.26725 143.657 1.95118 143.782 1.65847C143.907 1.36575 144.094 1.1032 144.33 0.888561C144.553 0.670046 144.818 0.497519 145.108 0.380849C145.398 0.264179 145.709 0.205664 146.022 0.208646H151.903C152.897 0.203842 153.888 0.31486 154.856 0.539425C155.737 0.740731 156.572 1.10653 157.316 1.61749C158.034 2.11985 158.619 2.78829 159.02 3.56538C159.466 4.48202 159.678 5.49415 159.636 6.51173C159.653 7.55451 159.394 8.58348 158.885 9.49482C158.36 10.4024 157.594 11.1484 156.67 11.651C156.606 11.6819 156.55 11.7284 156.508 11.7861C156.467 11.8439 156.44 11.9111 156.431 11.9817C156.417 12.0866 156.441 12.193 156.498 12.2819L159.999 18.585C160.049 18.6774 160.076 18.7802 160.079 18.8851C160.079 18.9593 160.063 19.0327 160.032 19.1003C160.001 19.168 159.956 19.2282 159.9 19.2772C159.803 19.3734 159.674 19.432 159.537 19.4425ZM154.321 6.48109C154.342 6.16083 154.292 5.83986 154.174 5.54121C154.055 5.24255 153.872 4.97362 153.638 4.75371C153.148 4.33972 152.521 4.12145 151.878 4.14117H147.105C147.313 4.1334 147.52 4.17168 147.711 4.25324C147.903 4.33479 148.074 4.45761 148.212 4.61284C148.471 4.87975 148.62 5.23388 148.63 5.60516V7.84707C148.629 8.06208 148.713 8.26883 148.864 8.42287C148.941 8.50754 149.037 8.57401 149.143 8.61744C149.249 8.66088 149.364 8.68021 149.479 8.67401H151.897C152.528 8.70245 153.15 8.51194 153.656 8.13497C153.887 7.92901 154.068 7.67252 154.183 7.38561C154.298 7.09869 154.345 6.78912 154.321 6.48109Z" fill="#FFDA00"/>
<path d="M159.777 26.8486H144.33V28.3187H159.777V26.8486Z" fill="#FFDA00"/>
<path d="M15.7943 26.916H0.347168V28.3861H15.7943V26.916Z" fill="#FFDA00"/>
<path d="M22.1988 25.9113C22.4694 25.9072 22.7378 25.9596 22.9868 26.0651C23.2358 26.1706 23.4598 26.3269 23.6445 26.5238L23.7552 26.628L24.6041 25.7949L24.4873 25.703C24.0342 25.2523 23.4574 24.945 22.8294 24.8198C22.2014 24.6946 21.5503 24.757 20.9578 24.9992C20.3654 25.2415 19.8581 25.6527 19.4997 26.1812C19.1413 26.7097 18.9478 27.3319 18.9436 27.9696C18.9393 28.6073 19.1245 29.232 19.4758 29.7652C19.8271 30.2984 20.3288 30.7163 20.918 30.9663C21.5072 31.2164 22.1574 31.2874 22.787 31.1705C23.4166 31.0536 23.9974 30.754 24.4565 30.3093L24.5734 30.1991L23.7121 29.3783L23.6076 29.4763C23.3631 29.7073 23.0654 29.8751 22.7407 29.9649C22.4159 30.0547 22.074 30.0639 21.7449 29.9916C21.4158 29.9193 21.1095 29.7677 20.8529 29.5501C20.5963 29.3325 20.3972 29.0556 20.273 28.7436C20.1489 28.4316 20.1035 28.094 20.1408 27.7605C20.1782 27.427 20.2971 27.1077 20.4871 26.8305C20.6772 26.5534 20.9327 26.3269 21.2311 26.1709C21.5295 26.0149 21.8618 25.9342 22.1988 25.9358V25.9113Z" fill="#231F20"/>
<path d="M27.9692 29.1022C27.9705 29.199 27.9521 29.295 27.9151 29.3845C27.878 29.474 27.8232 29.5551 27.7539 29.6229C27.4956 29.7907 27.187 29.8643 26.8804 29.8311H26.7266V31.0195H26.8804C27.1897 31.0433 27.5006 31.0058 27.7953 30.9091C28.0899 30.8123 28.3623 30.6583 28.5967 30.456C28.7767 30.2795 28.9191 30.0686 29.0153 29.836C29.1115 29.6033 29.1595 29.3538 29.1565 29.1022V26.0824H31.002V31.0195H32.1955V24.894H28L27.9692 29.1022Z" fill="#231F20"/>
<path d="M37.6398 27.5042L36.1264 24.9009H34.7484L36.9508 28.6925L36.5632 29.3602C36.4004 29.5312 36.2004 29.6626 35.9786 29.7444C35.7567 29.8262 35.5189 29.8561 35.2836 29.8319H35.1298V31.0202H35.2836C35.7306 31.0591 36.18 30.9805 36.5869 30.7924C36.9939 30.6043 37.3442 30.3133 37.6028 29.9482L40.5188 24.9009H39.1469L37.6398 27.5042Z" fill="#231F20"/>
<path d="M49.2605 24.9009L47.1259 27.835V24.9009H45.9386V27.8411L43.7978 24.9009H42.3152L44.5483 27.9697L42.3275 31.0202H43.8101L45.9386 28.1045V31.0202H47.1259V28.0984L49.2482 31.0202H50.737L48.5162 27.9636L50.7431 24.9009H49.2605Z" fill="#231F20"/>
<path d="M55.9715 27.0142H54.6305V26.0892H57.6448V24.9009H53.437V31.0263H55.9777C56.5112 31.0263 57.0229 30.8153 57.4001 30.4396C57.7774 30.064 57.9893 29.5545 57.9893 29.0233C57.9893 28.4921 57.7774 27.9826 57.4001 27.6069C57.0229 27.2313 56.5112 27.0203 55.9777 27.0203L55.9715 27.0142ZM56.7836 29.0172C56.7854 29.1253 56.765 29.2327 56.7238 29.3327C56.6825 29.4328 56.6212 29.5234 56.5436 29.5991C56.4699 29.6755 56.3809 29.7357 56.2823 29.7758C56.1838 29.8158 56.0779 29.8349 55.9715 29.8319H54.6305V28.2025H55.9777C56.1936 28.2041 56.4002 28.2906 56.5523 28.4433C56.7044 28.5959 56.7897 28.8022 56.7897 29.0172H56.7836Z" fill="#231F20"/>
<path d="M63.8212 24.9009H62.9477L60.0809 31.0263H61.3974L61.8034 30.1443H64.9593L65.3715 31.0263H66.7002L63.8581 24.9928L63.8212 24.9009ZM64.4056 28.9498H62.3694L63.3906 26.7814L64.4056 28.9498Z" fill="#231F20"/>
<path d="M76.1249 24.729C75.698 24.7215 75.274 24.8013 74.8793 24.9636C74.4846 25.1258 74.1276 25.3671 73.8303 25.6723L73.7196 25.7826L74.5686 26.6156L74.6731 26.5115C74.8635 26.3211 75.0897 26.17 75.3389 26.0669C75.588 25.9639 75.8551 25.9108 76.1249 25.9108C76.3947 25.9108 76.6619 25.9639 76.911 26.0669C77.1602 26.17 77.3864 26.3211 77.5768 26.5115C77.8217 26.7482 78.0017 27.0435 78.0997 27.3691H75.3621V28.5574H78.0997C78.0014 28.8793 77.8212 29.1705 77.5768 29.4027C77.3916 29.6007 77.1667 29.7577 76.9165 29.8632C76.6663 29.9688 76.3966 30.0206 76.1249 30.0153C75.6001 30.0208 75.0941 29.8206 74.7162 29.4578L74.6116 29.3598L73.7442 30.1745L73.8611 30.2848C74.2424 30.6551 74.7093 30.9263 75.2206 31.0746C75.732 31.2229 76.2721 31.2437 76.7935 31.1352C77.3148 31.0267 77.8014 30.7922 78.2103 30.4524C78.6191 30.1126 78.9378 29.6778 79.1383 29.1865C79.3387 28.6951 79.4147 28.1623 79.3596 27.6348C79.3045 27.1073 79.12 26.6014 78.8223 26.1616C78.5246 25.7219 78.1229 25.3618 77.6525 25.113C77.1821 24.8642 76.6576 24.7345 76.1249 24.7351V24.729Z" fill="#231F20"/>
<path d="M86.4227 27.7431C86.6801 27.4331 86.8196 27.0427 86.8164 26.6405C86.8148 26.1796 86.6302 25.7381 86.3029 25.4122C85.9756 25.0863 85.5322 24.9025 85.0693 24.9009H82.2579V31.0263H85.0693C85.4501 31.0267 85.8224 30.9148 86.1393 30.7045C86.4561 30.4942 86.7033 30.1951 86.8494 29.845C86.9956 29.495 87.0343 29.1096 86.9605 28.7376C86.8867 28.3657 86.7038 28.0238 86.435 27.7553L86.4227 27.7431ZM83.4514 27.1918V26.0892H85.0693C85.1428 26.0884 85.2157 26.1026 85.2834 26.1311C85.3512 26.1595 85.4123 26.2016 85.463 26.2546C85.514 26.3052 85.5544 26.3654 85.582 26.4316C85.6096 26.4978 85.6238 26.5688 85.6238 26.6405C85.6238 26.7122 85.6096 26.7832 85.582 26.8494C85.5544 26.9156 85.514 26.9758 85.463 27.0264C85.4123 27.0794 85.3512 27.1215 85.2834 27.1499C85.2157 27.1784 85.1428 27.1926 85.0693 27.1918H83.4514ZM85.8014 29.1029C85.8022 29.1989 85.7838 29.294 85.7473 29.3828C85.7108 29.4716 85.6569 29.5523 85.5888 29.6202C85.5206 29.688 85.4396 29.7417 85.3504 29.778C85.2612 29.8144 85.1657 29.8327 85.0693 29.8319H83.4514V28.3801H85.0693C85.1651 28.3793 85.2602 28.3974 85.349 28.4334C85.4378 28.4693 85.5185 28.5225 85.5866 28.5897C85.6546 28.6569 85.7086 28.7368 85.7455 28.8249C85.7824 28.913 85.8014 29.0075 85.8014 29.1029Z" fill="#231F20"/>
<path d="M92.1565 24.9009L89.2897 31.0263H90.6062L91.0122 30.1443H94.1742L94.5803 31.0263H95.9152L93.03 24.9009H92.1565ZM93.6206 28.9498H91.5413L92.5563 26.7814L93.6206 28.9498Z" fill="#231F20"/>
<path d="M101.809 24.9009L99.5817 27.9575L101.809 31.0202H103.291L101.064 27.9575L103.291 24.9009H101.809Z" fill="#231F20"/>
<path d="M99.5445 24.9009H98.351V31.0202H99.5445V24.9009Z" fill="#231F20"/>
<path d="M108.2 27.5042L106.687 24.9009H105.309L107.511 28.6925L107.124 29.3602C106.962 29.5307 106.763 29.6619 106.542 29.7436C106.321 29.8254 106.085 29.8556 105.85 29.8319H105.69V31.0202H105.844C106.291 31.0578 106.74 30.9787 107.147 30.7907C107.553 30.6028 107.904 30.3123 108.163 29.9482L111.073 24.9009H109.701L108.2 27.5042Z" fill="#231F20"/>
<path d="M114.432 24.9009L111.559 31.0263H112.875L113.288 30.1443H116.444L116.856 31.0263H118.184L115.305 24.9009H114.432ZM115.89 28.9498H113.854L114.875 26.7814L115.89 28.9498Z" fill="#231F20"/>
<path d="M125.21 24.9009H124.016V29.838H121.851V24.9009H120.657V31.0325H124.724V31.9084H125.923V29.838H125.21V24.9009Z" fill="#231F20"/>
<path d="M129.805 28.5639V24.9009H128.612V31.0202H129.424L132.327 27.253V31.0202H133.521V24.9009H132.635L129.805 28.5639Z" fill="#231F20"/>
<path d="M140.768 24.9009L137.944 28.5639V24.9009H136.751V31.0202H137.557L140.46 27.253V31.0202H141.654V24.9009H140.768Z" fill="#231F20"/>
</g>
<defs>
<clipPath id="clip0_205_4212">
<rect width="160" height="32" fill="white"/>
</clipPath>
</defs>
</svg>
