<svg width="262" height="157" viewBox="0 0 262 157" fill="none" xmlns="http://www.w3.org/2000/svg">
<path d="M28.7194 103.72C28.7674 105.38 28.4248 107.027 27.7194 108.53C27.0987 109.787 26.1741 110.87 25.0294 111.68C23.842 112.507 22.5031 113.091 21.0894 113.4C19.5036 113.752 17.8837 113.926 16.2594 113.92H12.4694C12.119 113.918 11.7804 114.046 11.5194 114.28C11.3825 114.406 11.2754 114.562 11.2062 114.735C11.137 114.908 11.1073 115.094 11.1194 115.28V123.62C11.1118 123.917 10.9904 124.2 10.7801 124.411C10.5698 124.621 10.2868 124.742 9.98945 124.75H3.53944C3.39149 124.751 3.24504 124.721 3.10914 124.662C2.97325 124.604 2.8508 124.518 2.74943 124.41C2.63756 124.312 2.549 124.19 2.49018 124.054C2.43136 123.917 2.40377 123.769 2.40943 123.62V97.2301C2.39515 96.6734 2.50537 96.1206 2.732 95.612C2.95864 95.1033 3.29598 94.6517 3.71943 94.2901C4.09368 93.9727 4.51996 93.7224 4.97944 93.5501C5.41391 93.3852 5.8747 93.3004 6.33943 93.3001H16.2594C17.8933 93.2913 19.5221 93.4827 21.1094 93.8701C22.5501 94.1955 23.9105 94.8076 25.1094 95.6701C26.2482 96.5116 27.1619 97.6211 27.7694 98.9001C28.4508 100.413 28.7758 102.062 28.7194 103.72ZM19.9694 103.72C20.0281 103.19 19.9669 102.653 19.7901 102.149C19.6134 101.646 19.3257 101.189 18.9483 100.811C18.571 100.434 18.1137 100.146 17.6101 99.9694C17.1066 99.7927 16.5698 99.7314 16.0394 99.7901H8.41944C8.69673 99.7956 8.97088 99.8498 9.22944 99.9501C9.53359 100.059 9.81747 100.218 10.0694 100.42C10.3276 100.646 10.5471 100.913 10.7194 101.21C10.9006 101.534 10.9937 101.899 10.9895 102.27V106.15C10.9865 106.338 11.0233 106.524 11.0975 106.696C11.1716 106.868 11.2813 107.023 11.4194 107.15C11.6922 107.4 12.0499 107.535 12.4194 107.53H16.0694C17.1272 107.593 18.1666 107.233 18.9595 106.53C19.3164 106.151 19.5905 105.702 19.7644 105.211C19.9383 104.721 20.0081 104.199 19.9694 103.68V103.72Z" fill="white"/>
<path d="M58.7602 124.79H52.4002C52.0142 124.807 51.6327 124.702 51.3096 124.49C50.9866 124.279 50.7384 123.971 50.6002 123.61L46.0002 114.61C45.8853 114.387 45.7099 114.201 45.494 114.074C45.2782 113.947 45.0307 113.883 44.7802 113.89H38.8702C39.2078 113.875 39.5444 113.938 39.8533 114.075C40.1622 114.212 40.435 114.419 40.6502 114.68C41.0515 115.118 41.2822 115.686 41.3002 116.28V123.72C41.3067 123.863 41.2823 124.006 41.2288 124.139C41.1754 124.271 41.094 124.391 40.9902 124.49C40.8841 124.596 40.7575 124.678 40.6182 124.733C40.4789 124.788 40.3299 124.814 40.1802 124.81H34.0002C33.8524 124.809 33.7063 124.779 33.5706 124.72C33.4348 124.662 33.3123 124.577 33.2102 124.47C33.1035 124.376 33.018 124.261 32.9594 124.131C32.9008 124.002 32.8703 123.862 32.8702 123.72V97.2699C32.8579 96.7516 32.9559 96.2367 33.1576 95.7592C33.3593 95.2816 33.6601 94.8524 34.0402 94.4998C34.4031 94.1431 34.8328 93.8615 35.3046 93.671C35.7765 93.4805 36.2813 93.385 36.7902 93.3899H46.3602C47.9757 93.3826 49.5866 93.5638 51.1602 93.9299C52.5937 94.2555 53.9516 94.8529 55.1602 95.6898C56.3305 96.5093 57.2844 97.6006 57.9402 98.8698C58.66 100.368 59.0033 102.019 58.9402 103.68C58.9642 105.382 58.5437 107.06 57.7202 108.55C56.8623 110.032 55.6135 111.25 54.1102 112.07C54.0068 112.121 53.9178 112.197 53.8514 112.291C53.785 112.386 53.7433 112.495 53.7302 112.61C53.703 112.781 53.7423 112.957 53.8402 113.1L59.5402 123.39C59.6242 123.54 59.6722 123.708 59.6802 123.88C59.6804 124.002 59.6536 124.123 59.6017 124.233C59.5498 124.344 59.4742 124.442 59.3802 124.52C59.2153 124.685 58.9936 124.782 58.7602 124.79ZM50.2802 103.63C50.3139 103.108 50.2329 102.585 50.0429 102.098C49.8529 101.611 49.5584 101.171 49.1802 100.81C48.38 100.133 47.3575 99.7771 46.3102 99.8098H38.5402C38.88 99.7971 39.2184 99.8595 39.5312 99.9926C39.8441 100.126 40.1237 100.326 40.3502 100.58C40.769 101.017 41.0081 101.595 41.0202 102.2V105.86C41.0192 106.035 41.0532 106.208 41.1202 106.369C41.1871 106.531 41.2857 106.677 41.4102 106.8C41.5351 106.939 41.69 107.049 41.8631 107.12C42.0363 107.191 42.2234 107.221 42.4102 107.21H46.3302C47.3597 107.256 48.3736 106.945 49.2002 106.33C49.5751 105.993 49.8674 105.574 50.0547 105.106C50.2419 104.637 50.3191 104.133 50.2802 103.63Z" fill="white"/>
<path d="M77.1198 125.33C72.8532 125.33 69.4865 124.293 67.0199 122.22C64.5532 120.147 63.2432 117.093 63.0898 113.06C63.0898 112.22 63.0898 110.92 63.0898 109.18C63.0898 107.44 63.0898 106.13 63.0898 105.26C63.2098 101.26 64.5265 98.2001 67.0399 96.0801C69.5532 93.9601 72.9132 92.8834 77.1198 92.8501C81.2998 92.8501 84.6332 93.9268 87.1198 96.0801C89.6065 98.2334 90.9198 101.293 91.0598 105.26C91.1198 107 91.1498 108.31 91.1498 109.18C91.1498 110.05 91.1498 111.38 91.0598 113.06C90.9132 117.06 89.6132 120.113 87.1599 122.22C84.7065 124.327 81.3598 125.363 77.1198 125.33ZM77.1198 118.56C77.8074 118.594 78.4945 118.485 79.1381 118.24C79.7816 117.996 80.3678 117.622 80.8599 117.14C81.8921 115.933 82.425 114.377 82.3499 112.79C82.4099 111.04 82.4398 109.79 82.4398 109.04C82.4398 108.29 82.4399 107.04 82.3499 105.39C82.426 103.803 81.893 102.247 80.8599 101.04C80.3678 100.559 79.7816 100.184 79.1381 99.9398C78.4945 99.6954 77.8074 99.5866 77.1198 99.6201C76.4245 99.5838 75.7291 99.6912 75.077 99.9355C74.425 100.18 73.8302 100.556 73.3299 101.04C72.3003 102.249 71.7677 103.804 71.8398 105.39C71.8398 106.23 71.8398 107.45 71.8398 109.04C71.8398 110.63 71.8398 111.92 71.8398 112.79C71.7697 114.376 72.302 115.93 73.3299 117.14C73.8302 117.624 74.425 118 75.077 118.245C75.7291 118.489 76.4245 118.596 77.1198 118.56Z" fill="white"/>
<path d="M96.2907 123.61V97.2298C96.2726 96.6209 96.403 96.0169 96.6707 95.4698C96.9238 95.0034 97.2631 94.5894 97.6707 94.2498C98.0487 93.9266 98.4872 93.6818 98.9607 93.5297C99.3762 93.3867 99.8114 93.3091 100.251 93.2998H111.341C112.795 93.2901 114.247 93.4343 115.671 93.7298C116.942 93.9815 118.152 94.481 119.231 95.1998C120.262 95.9135 121.093 96.8813 121.641 98.0098C122.282 99.3536 122.59 100.832 122.541 102.32C122.546 103.564 122.2 104.784 121.541 105.84C120.885 106.901 119.96 107.771 118.861 108.36C120.206 108.897 121.328 109.878 122.041 111.14C122.788 112.37 123.186 113.78 123.191 115.22C123.238 116.746 122.919 118.262 122.261 119.64C121.683 120.828 120.825 121.857 119.761 122.64C118.66 123.433 117.412 124.001 116.091 124.31C114.634 124.665 113.14 124.84 111.641 124.83H97.4207C97.2726 124.831 97.1257 124.802 96.9897 124.743C96.8536 124.685 96.7313 124.598 96.6307 124.49C96.506 124.382 96.4097 124.246 96.3504 124.092C96.2911 123.939 96.2706 123.773 96.2907 123.61ZM110.361 105.75C111.262 105.791 112.146 105.495 112.841 104.92C113.17 104.613 113.427 104.237 113.591 103.818C113.756 103.399 113.824 102.949 113.791 102.5C113.821 102.056 113.746 101.61 113.572 101.201C113.398 100.791 113.131 100.427 112.791 100.14C112.091 99.5918 111.219 99.3116 110.331 99.3498H102.221C102.86 99.3591 103.472 99.6112 103.933 100.055C104.393 100.499 104.668 101.101 104.701 101.74V104.44C104.72 104.759 104.847 105.062 105.061 105.3C105.18 105.449 105.332 105.567 105.506 105.646C105.68 105.724 105.87 105.76 106.061 105.75H110.361ZM110.771 118.65C111.732 118.691 112.675 118.37 113.411 117.75C113.756 117.421 114.025 117.021 114.198 116.576C114.371 116.132 114.443 115.655 114.411 115.18C114.438 114.702 114.362 114.224 114.19 113.777C114.017 113.33 113.752 112.926 113.411 112.59C112.703 111.925 111.762 111.565 110.791 111.59H102.271C102.91 111.599 103.522 111.851 103.983 112.295C104.443 112.739 104.718 113.341 104.751 113.98V117.27C104.761 117.598 104.877 117.913 105.081 118.17C105.2 118.318 105.353 118.436 105.527 118.515C105.701 118.593 105.89 118.629 106.081 118.62L110.771 118.65Z" fill="#FFDA00"/>
<path d="M128 112.92V97.3201C127.988 96.7408 128.119 96.1675 128.38 95.6502C128.635 95.1853 128.974 94.7717 129.38 94.4302C129.751 94.1056 130.178 93.8514 130.64 93.6802C131.067 93.5275 131.516 93.4464 131.97 93.4401H135.36C135.666 93.4296 135.965 93.5411 136.19 93.7501C136.303 93.8537 136.392 93.9808 136.451 94.1225C136.509 94.2641 136.536 94.4169 136.53 94.5701V112.83C136.448 114.282 136.872 115.717 137.73 116.89C138.802 117.849 140.191 118.38 141.63 118.38C143.069 118.38 144.457 117.849 145.53 116.89C146.38 115.713 146.8 114.28 146.72 112.83V97.2702C146.707 96.6896 146.842 96.1153 147.11 95.6001C147.362 95.1333 147.701 94.7191 148.11 94.3801C148.48 94.0616 148.907 93.8172 149.37 93.6601C149.792 93.5168 150.234 93.4425 150.68 93.4401H154.06C154.369 93.4312 154.67 93.5423 154.9 93.7501C155.009 93.8558 155.096 93.9835 155.152 94.1248C155.209 94.2662 155.236 94.4179 155.23 94.5701V112.92C155.267 114.812 154.927 116.692 154.23 118.45C153.642 119.926 152.709 121.239 151.51 122.28C150.261 123.326 148.806 124.096 147.24 124.54C145.428 125.052 143.552 125.301 141.67 125.28C139.795 125.298 137.927 125.056 136.12 124.56C134.542 124.137 133.075 123.376 131.82 122.33C130.599 121.283 129.646 119.96 129.04 118.47C128.325 116.708 127.971 114.821 128 112.92Z" fill="#FFDA00"/>
<path d="M173.651 108.32C174.177 108.319 174.698 108.428 175.181 108.64C175.634 108.835 176.066 109.076 176.471 109.36C176.824 109.603 177.159 109.874 177.471 110.17L178.051 110.76L187.481 123.25C187.55 123.32 187.602 123.405 187.633 123.499C187.664 123.593 187.674 123.692 187.661 123.79C187.662 123.909 187.639 124.028 187.592 124.138C187.546 124.248 187.477 124.347 187.391 124.43C187.192 124.605 186.936 124.701 186.671 124.7H179.671C179.323 124.716 178.977 124.646 178.663 124.496C178.348 124.346 178.076 124.12 177.871 123.84C176.451 122.01 175.181 120.35 174.031 118.84L172.361 116.72L171.191 115.21L170.271 114.01C170.011 113.676 169.851 113.466 169.791 113.38C169.722 113.339 169.648 113.308 169.571 113.29C169.421 113.29 169.341 113.38 169.341 113.56V123.56C169.35 123.706 169.327 123.853 169.274 123.989C169.22 124.126 169.137 124.249 169.031 124.35C168.921 124.452 168.791 124.531 168.651 124.582C168.51 124.634 168.36 124.657 168.211 124.65H162.211C161.922 124.654 161.642 124.547 161.431 124.35C161.319 124.252 161.23 124.13 161.171 123.993C161.112 123.857 161.085 123.708 161.091 123.56V97.1798C161.093 96.1809 161.48 95.2213 162.171 94.4998C162.521 94.1067 162.953 93.7954 163.437 93.588C163.921 93.3807 164.444 93.2823 164.971 93.2998H168.211C168.362 93.2944 168.513 93.32 168.654 93.375C168.795 93.43 168.923 93.5133 169.031 93.6198C169.135 93.7264 169.216 93.8533 169.27 93.9926C169.323 94.1319 169.347 94.2807 169.341 94.4298V103.54C169.337 103.571 169.341 103.602 169.352 103.631C169.362 103.661 169.379 103.687 169.401 103.709C169.423 103.731 169.45 103.748 169.479 103.759C169.508 103.769 169.54 103.773 169.571 103.77C169.612 103.771 169.652 103.764 169.69 103.748C169.728 103.733 169.762 103.709 169.791 103.68L177.281 94.1598C177.47 93.8724 177.734 93.6411 178.043 93.4899C178.353 93.3386 178.697 93.273 179.041 93.2998H185.901C186.15 93.3032 186.389 93.3994 186.571 93.5698C186.656 93.6507 186.725 93.7483 186.771 93.8567C186.817 93.9651 186.841 94.0819 186.841 94.1998C186.841 94.4998 186.781 94.6898 186.661 94.7498C185.131 96.7498 183.751 98.5698 182.511 100.16C181.761 101.16 181.181 101.89 180.751 102.46C180.321 103.03 179.931 103.56 179.561 104.04C179.191 104.52 178.871 104.92 178.611 105.23C178.351 105.54 178.211 105.72 178.181 105.75C178.151 105.78 177.971 106.03 177.731 106.31C177.452 106.642 177.133 106.938 176.781 107.19C176.363 107.516 175.902 107.782 175.411 107.98C174.855 108.219 174.255 108.335 173.651 108.32Z" fill="#FFDA00"/>
<path d="M215.871 115.31C215.924 116.976 215.459 118.619 214.541 120.01C213.697 121.268 212.579 122.317 211.271 123.08C209.899 123.879 208.406 124.45 206.851 124.77C205.296 125.106 203.711 125.28 202.121 125.29C200.583 125.284 199.05 125.133 197.541 124.84C196.02 124.557 194.551 124.048 193.181 123.33C191.889 122.645 190.761 121.69 189.871 120.53C188.947 119.279 188.434 117.774 188.401 116.22C188.398 116.092 188.423 115.964 188.475 115.847C188.527 115.729 188.604 115.625 188.701 115.54C188.89 115.363 189.141 115.266 189.401 115.27H195.401C195.559 115.27 195.716 115.286 195.871 115.32C196.002 115.347 196.13 115.39 196.251 115.45C196.533 115.631 196.791 115.846 197.021 116.09C197.227 116.548 197.523 116.961 197.89 117.304C198.257 117.648 198.689 117.915 199.161 118.09C200.122 118.438 201.138 118.614 202.161 118.61C202.678 118.606 203.196 118.576 203.711 118.52C204.27 118.467 204.818 118.336 205.341 118.13C205.824 117.942 206.26 117.652 206.621 117.28C206.988 116.881 207.182 116.352 207.161 115.81C207.186 115.462 207.116 115.114 206.957 114.804C206.799 114.493 206.558 114.233 206.261 114.05C205.666 113.691 205.032 113.402 204.371 113.19C203.771 112.985 203.16 112.814 202.541 112.68C201.831 112.51 201.011 112.34 200.081 112.16C198.726 111.892 197.39 111.538 196.081 111.1C194.85 110.695 193.687 110.109 192.631 109.36C191.625 108.642 190.791 107.71 190.191 106.63C189.477 105.179 189.167 103.563 189.294 101.951C189.42 100.339 189.979 98.7913 190.911 97.4699C192.04 96.0252 193.525 94.8984 195.221 94.2C197.334 93.3848 199.586 92.9874 201.851 93.0299C202.886 93.0319 203.919 93.1154 204.941 93.2799C206.003 93.4378 207.046 93.7093 208.051 94.0899C209.051 94.4618 209.999 94.9627 210.871 95.58C211.741 96.195 212.504 96.9482 213.131 97.8099C214.074 98.9467 214.656 100.34 214.801 101.81C214.789 102.063 214.682 102.303 214.501 102.48C214.422 102.577 214.323 102.656 214.21 102.711C214.098 102.766 213.976 102.796 213.851 102.8H207.541C207.245 102.806 206.952 102.735 206.692 102.593C206.433 102.451 206.215 102.243 206.061 101.99C205.821 101.287 205.319 100.703 204.661 100.36C203.792 99.9265 202.831 99.7104 201.861 99.73C201.402 99.7304 200.945 99.7604 200.491 99.82C200.039 99.8757 199.602 100.015 199.201 100.23C198.823 100.429 198.498 100.713 198.251 101.06C198.072 101.34 197.956 101.656 197.91 101.985C197.864 102.314 197.889 102.65 197.984 102.968C198.079 103.287 198.241 103.581 198.459 103.832C198.678 104.082 198.948 104.283 199.251 104.42C200.866 105.124 202.562 105.624 204.301 105.91C205.711 106.18 207.121 106.51 208.511 106.91C209.827 107.253 211.085 107.792 212.241 108.51C213.313 109.192 214.213 110.113 214.871 111.2C215.573 112.453 215.919 113.874 215.871 115.31Z" fill="#FFDA00"/>
<path d="M220.291 123.66V97.2701C220.275 96.7441 220.371 96.2207 220.573 95.7346C220.775 95.2484 221.077 94.8107 221.461 94.4501C222.197 93.7361 223.185 93.3409 224.211 93.3501H227.821C227.97 93.3377 228.121 93.3591 228.261 93.4127C228.401 93.4664 228.528 93.551 228.631 93.6601C228.736 93.7662 228.819 93.8928 228.874 94.0321C228.929 94.1714 228.955 94.3204 228.951 94.4701V123.66C228.952 123.803 228.925 123.946 228.87 124.078C228.815 124.21 228.733 124.33 228.631 124.43C228.532 124.548 228.408 124.642 228.268 124.705C228.127 124.767 227.974 124.796 227.821 124.79H221.421C221.123 124.783 220.84 124.661 220.63 124.451C220.42 124.24 220.298 123.957 220.291 123.66Z" fill="#FFDA00"/>
<path d="M261.07 124.79H254.71C254.323 124.808 253.94 124.703 253.615 124.492C253.29 124.28 253.04 123.971 252.9 123.61L248.3 114.61C248.186 114.386 248.011 114.2 247.795 114.072C247.579 113.945 247.331 113.882 247.08 113.89H241.17C241.508 113.874 241.845 113.937 242.154 114.074C242.463 114.211 242.735 114.419 242.95 114.68C243.354 115.118 243.588 115.685 243.61 116.28V123.72C243.615 123.864 243.589 124.007 243.534 124.14C243.479 124.273 243.396 124.392 243.29 124.49C243.184 124.596 243.057 124.678 242.918 124.733C242.779 124.788 242.63 124.814 242.48 124.81H236.3C236.152 124.808 236.007 124.777 235.871 124.719C235.736 124.66 235.613 124.576 235.51 124.47C235.406 124.374 235.323 124.258 235.264 124.129C235.206 124 235.174 123.861 235.17 123.72V97.2699C235.157 96.7506 235.256 96.2346 235.459 95.7568C235.663 95.2789 235.967 94.8503 236.35 94.4999C236.713 94.1431 237.143 93.8615 237.615 93.671C238.086 93.4806 238.591 93.385 239.1 93.3899H248.66C250.276 93.3821 251.887 93.5633 253.46 93.9299C254.893 94.2585 256.25 94.8557 257.46 95.6899C258.627 96.51 259.578 97.6013 260.23 98.8699C260.955 100.366 261.298 102.019 261.23 103.68C261.259 105.382 260.838 107.062 260.01 108.55C259.156 110.032 257.911 111.249 256.41 112.07C256.305 112.12 256.215 112.196 256.147 112.291C256.079 112.385 256.035 112.495 256.02 112.61C255.998 112.781 256.037 112.955 256.13 113.1L261.82 123.39C261.901 123.541 261.946 123.709 261.95 123.88C261.95 124.001 261.924 124.121 261.874 124.231C261.824 124.342 261.751 124.44 261.66 124.52C261.502 124.677 261.293 124.773 261.07 124.79ZM252.59 103.63C252.625 103.107 252.543 102.583 252.351 102.095C252.159 101.608 251.862 101.169 251.48 100.81C250.683 100.134 249.664 99.7777 248.62 99.8099H240.86C241.198 99.7972 241.535 99.8597 241.847 99.9928C242.158 100.126 242.436 100.326 242.66 100.58C243.082 101.016 243.324 101.594 243.34 102.2V105.86C243.339 106.211 243.475 106.548 243.72 106.8C243.846 106.938 244.001 107.047 244.174 107.118C244.347 107.188 244.533 107.22 244.72 107.21H248.65C249.676 107.256 250.687 106.945 251.51 106.33C251.886 105.994 252.179 105.575 252.367 105.107C252.554 104.638 252.631 104.133 252.59 103.63Z" fill="#FFDA00"/>
<path d="M261.46 136.88H236.35V139.28H261.46V136.88Z" fill="#FFDA00"/>
<path d="M27.4098 136.99H2.2998V139.39H27.4098V136.99Z" fill="#FFDA00"/>
<path d="M72.5398 33.6601C71.4108 32.8246 70.0537 32.3537 68.6498 32.3101C65.5044 32.224 62.4253 33.2233 59.9299 35.1401C57.8399 36.6201 55.8299 38.2001 53.7399 39.6701C52.8816 40.2849 51.9061 40.7167 50.8739 40.9387C49.8417 41.1606 48.775 41.1679 47.7399 40.9601C45.2199 40.5101 43.3698 38.6101 43.4098 36.5801C43.5296 35.3694 44.0146 34.2238 44.8004 33.2951C45.5862 32.3664 46.6357 31.6986 47.8098 31.3801C46.4998 33.2001 45.0198 34.9201 45.5698 37.6801C47.8898 33.4801 51.5698 31.9201 55.8098 31.1201C58.938 30.4647 61.7432 28.7477 63.7498 26.2601C63.9727 26.0596 64.1411 25.8057 64.239 25.5224C64.337 25.239 64.3613 24.9354 64.3098 24.6401C63.7398 21.3901 60.0698 17.8101 56.8098 17.3801C54.4498 17.0801 53.0398 18.3801 53.1398 20.7301C53.1542 21.0995 53.2147 21.4656 53.3198 21.8201C53.4386 22.1233 53.4488 22.4584 53.3485 22.7683C53.2482 23.0782 53.0438 23.3438 52.7699 23.5201C50.782 25.2147 48.4208 26.4142 45.8798 27.0201C43.6418 27.4807 41.487 28.2799 39.4899 29.3901C37.2322 30.5436 35.3491 32.3152 34.0601 34.4984C32.7711 36.6815 32.1294 39.1861 32.2099 41.7201C32.2099 47.1001 35.2098 50.9201 39.8998 53.2901C43.6651 55.1412 48.0069 55.4393 51.9899 54.12C58.1099 52.3 62.0999 48.0301 64.9899 42.5701C66.7599 39.1701 68.6099 35.9301 72.4899 34.5701C73.0699 34.3101 72.9798 34.0101 72.5398 33.6601ZM62.3398 23.9401C60.4468 22.3094 58.2891 21.0141 55.9599 20.1101C57.296 19.9421 58.6497 20.2286 59.8033 20.9233C60.9569 21.618 61.8433 22.6805 62.3198 23.9401H62.3398ZM42.9398 52.5801C38.0898 51.1801 34.4299 47.1701 34.2099 43.0201C34.7199 43.1801 34.8298 43.6901 35.0798 44.0201C39.4732 50.4001 45.3465 52.3634 52.6998 49.9101C54.085 49.4656 55.4244 48.8897 56.6998 48.1901C57.8998 47.5101 59.0798 46.7701 60.5398 45.8901C56.6298 51.5001 48.9598 54.3201 42.9198 52.5801H42.9398Z" fill="#FFDA00"/>
<path d="M57.4006 14.1001C62.3406 14.5401 67.1706 19.3901 67.6306 24.4101C67.6306 24.7401 67.4806 25.2002 68.1006 25.2202C68.7206 25.2402 68.7506 24.9501 68.8806 24.5701C69.1106 23.8701 69.3506 23.1601 69.5906 22.4601C70.1506 20.8101 70.1506 20.8101 71.7906 21.4601C83.9306 26.4201 96.0706 31.3735 108.211 36.3201C108.981 36.6401 109.741 36.9802 109.341 37.8701C109.121 38.3902 108.271 37.8701 107.831 37.7302C96.0639 33.1235 84.3006 28.4835 72.5406 23.8102C72.1606 23.6602 71.5406 23.3502 71.4106 23.4802C70.837 24.2692 70.432 25.1678 70.2206 26.1201C70.0106 26.7301 70.6906 26.8501 71.0406 27.0701C76.1506 30.3101 81.2606 33.5501 86.4106 36.7302C88.399 37.9365 90.2068 39.4178 91.7806 41.1301C94.9806 44.6401 98.3006 48.0401 101.541 51.5102C101.772 51.7935 102.065 52.0194 102.399 52.1704C102.732 52.3213 103.095 52.3931 103.461 52.3801C106.861 52.3801 120.551 52.9202 124.001 52.9602C124.861 52.9602 125.121 52.7201 125.111 51.8701C124.956 48.7048 124.976 45.5333 125.171 42.3701C125.421 39.7101 124.551 38.6801 122.121 37.2701C122.033 37.2336 121.952 37.1829 121.881 37.1201C121.391 36.7701 121.101 36.8302 120.881 37.4502C120.501 38.5964 120.061 39.7213 119.561 40.8201C119.421 41.0583 119.373 41.3393 119.427 41.6101C119.48 41.8809 119.631 42.1228 119.851 42.2901C120.561 43.0301 121.211 43.8201 121.931 44.5601C122.205 44.8806 122.384 45.2721 122.446 45.6897C122.508 46.1072 122.451 46.5338 122.281 46.9202C122.061 47.6902 121.281 47.2902 120.691 47.3002C119.621 47.3002 118.551 47.1702 117.481 47.2102C116.591 47.2102 116.391 46.8602 116.411 46.0502C116.411 43.6302 116.411 41.2002 116.411 38.7802C116.411 37.9702 116.491 37.3902 117.511 37.5302C118.011 37.6002 118.091 37.2701 118.151 36.8501C118.481 34.5401 118.291 34.3102 115.971 34.2802C115.361 34.2802 114.761 34.2802 114.151 34.2802C112.451 34.1602 110.721 34.4201 109.051 33.7401C96.4306 28.6135 83.8006 23.5068 71.1606 18.4202C70.5529 18.1968 70.0337 17.7829 69.6806 17.2401C68.8186 15.9031 67.6754 14.7701 66.3306 13.9202C65.0026 13.0913 63.5166 12.5478 61.9673 12.324C60.4179 12.1002 58.8389 12.201 57.3306 12.6201C56.7606 12.7501 56.0106 12.9602 56.1106 13.7302C56.2106 14.5002 56.9706 14.0601 57.4006 14.1001ZM85.7606 34.2901C85.3306 35.0301 84.8606 34.3601 84.4906 34.1301C81.4906 32.3401 78.4906 30.5101 75.5506 28.6901L72.2606 26.6901C72.9506 26.2101 73.2006 26.5301 73.4506 26.6901C77.3306 28.8901 81.2039 31.1068 85.0706 33.3402C85.4306 33.5402 86.1206 33.6701 85.7606 34.2901ZM109.391 45.7002C109.231 46.1102 108.921 46.1201 108.611 46.0701C107.551 45.9002 107.491 46.5201 107.511 47.3201C107.511 48.4101 107.511 49.5001 107.511 50.6001C106.771 50.6001 106.511 50.1601 106.191 49.8701C101.791 45.9901 97.4206 42.0901 93.0206 38.2101C92.1553 37.3902 91.5237 36.3548 91.1906 35.2101C92.6406 35.8501 93.8606 36.3601 95.0606 36.9001L108.161 42.7901C108.689 43.0374 109.107 43.4716 109.334 44.009C109.562 44.5464 109.582 45.1489 109.391 45.7002Z" fill="#FFDA00"/>
<path d="M113.061 33.0101C114.193 32.9375 115.253 32.4302 116.02 31.5943C116.787 30.7584 117.202 29.6584 117.178 28.5241C117.153 27.3898 116.691 26.3088 115.889 25.5068C115.086 24.7048 114.005 24.2439 112.87 24.2202C112.301 24.1928 111.732 24.2823 111.199 24.4834C110.666 24.6844 110.179 24.9927 109.77 25.3891C109.36 25.7855 109.036 26.2616 108.818 26.7881C108.6 27.3146 108.492 27.8803 108.501 28.4502C108.543 29.6461 109.037 30.7815 109.883 31.6277C110.729 32.4739 111.865 32.9679 113.061 33.0101Z" fill="#FFDA00"/>
<path d="M37.82 135.35C38.2598 135.343 38.6961 135.429 39.1009 135.601C39.5056 135.773 39.8698 136.028 40.17 136.35L40.35 136.52L41.73 135.16L41.54 135.01C40.8035 134.274 39.8659 133.773 38.8451 133.568C37.8243 133.364 36.7658 133.466 35.8028 133.861C34.8397 134.256 34.0151 134.928 33.4325 135.791C32.8499 136.653 32.5354 137.669 32.5284 138.71C32.5215 139.751 32.8225 140.771 33.3936 141.642C33.9646 142.512 34.7803 143.194 35.738 143.603C36.6957 144.011 37.7527 144.127 38.7761 143.936C39.7996 143.745 40.7438 143.256 41.49 142.53L41.68 142.35L40.28 141.01L40.11 141.17C39.7126 141.547 39.2287 141.821 38.7009 141.968C38.173 142.114 37.6172 142.129 37.0822 142.011C36.5472 141.893 36.0493 141.646 35.6322 141.291C35.215 140.935 34.8914 140.483 34.6896 139.974C34.4878 139.465 34.414 138.913 34.4747 138.369C34.5353 137.824 34.7286 137.303 35.0376 136.851C35.3466 136.398 35.7618 136.029 36.2469 135.774C36.732 135.519 37.2721 135.387 37.82 135.39V135.35Z" fill="white"/>
<path d="M47.1997 140.56C47.2017 140.718 47.1718 140.875 47.1116 141.021C47.0515 141.167 46.9624 141.299 46.8497 141.41C46.4298 141.684 45.9281 141.804 45.4297 141.75H45.1797V143.69H45.4297C45.9325 143.729 46.438 143.668 46.9169 143.51C47.3958 143.352 47.8386 143.1 48.2197 142.77C48.5123 142.482 48.7438 142.138 48.9001 141.758C49.0565 141.378 49.1346 140.971 49.1297 140.56V135.63H52.1297V143.69H54.0697V133.69H47.2497L47.1997 140.56Z" fill="white"/>
<path d="M62.9207 137.95L60.4607 133.7H58.2207L61.8007 139.89L61.1707 140.98C60.9062 141.259 60.581 141.474 60.2204 141.607C59.8597 141.741 59.4732 141.79 59.0907 141.75H58.8407V143.69H59.0907C59.8173 143.754 60.5478 143.625 61.2093 143.318C61.8708 143.011 62.4402 142.536 62.8607 141.94L67.6007 133.7H65.3707L62.9207 137.95Z" fill="white"/>
<path d="M81.8095 133.7L78.3395 138.49V133.7H76.4095V138.5L72.9295 133.7H70.5195L74.1495 138.71L70.5395 143.69H72.9495L76.4095 138.93V143.69H78.3395V138.92L81.7895 143.69H84.2095L80.5995 138.7L84.2195 133.7H81.8095Z" fill="white"/>
<path d="M92.7196 137.15H90.5396V135.64H95.4396V133.7H88.5996V143.7H92.7296C93.5969 143.7 94.4286 143.356 95.0418 142.742C95.6551 142.129 95.9996 141.297 95.9996 140.43C95.9996 139.563 95.6551 138.731 95.0418 138.118C94.4286 137.505 93.5969 137.16 92.7296 137.16L92.7196 137.15ZM94.0396 140.42C94.0425 140.597 94.0094 140.772 93.9424 140.935C93.8753 141.099 93.7757 141.247 93.6496 141.37C93.5297 141.495 93.385 141.593 93.2248 141.659C93.0647 141.724 92.8926 141.755 92.7196 141.75H90.5396V139.09H92.7296C93.0806 139.093 93.4163 139.234 93.6636 139.483C93.9109 139.732 94.0496 140.069 94.0496 140.42H94.0396Z" fill="white"/>
<path d="M105.48 133.7H104.06L99.4004 143.7H101.54L102.2 142.26H107.33L108 143.7H110.16L105.54 133.85L105.48 133.7ZM106.43 140.31H103.12L104.78 136.77L106.43 140.31Z" fill="white"/>
<path d="M125.48 133.42C124.786 133.408 124.097 133.538 123.456 133.803C122.814 134.068 122.233 134.462 121.75 134.96L121.57 135.14L122.95 136.5L123.12 136.33C123.43 136.019 123.797 135.773 124.202 135.604C124.607 135.436 125.042 135.35 125.48 135.35C125.919 135.35 126.353 135.436 126.758 135.604C127.163 135.773 127.531 136.019 127.84 136.33C128.239 136.717 128.531 137.199 128.69 137.73H124.24V139.67H128.69C128.531 140.196 128.238 140.671 127.84 141.05C127.539 141.374 127.174 141.63 126.767 141.802C126.36 141.974 125.922 142.059 125.48 142.05C124.627 142.059 123.805 141.732 123.19 141.14L123.02 140.98L121.61 142.31L121.8 142.49C122.42 143.095 123.179 143.538 124.01 143.78C124.842 144.022 125.72 144.056 126.567 143.879C127.415 143.701 128.205 143.319 128.87 142.764C129.535 142.209 130.053 141.499 130.379 140.697C130.704 139.895 130.828 139.025 130.738 138.164C130.649 137.303 130.349 136.477 129.865 135.759C129.381 135.041 128.728 134.453 127.963 134.047C127.199 133.641 126.346 133.429 125.48 133.43V133.42Z" fill="white"/>
<path d="M142.22 138.34C142.639 137.834 142.865 137.197 142.86 136.54C142.858 135.788 142.557 135.067 142.025 134.535C141.493 134.003 140.773 133.703 140.02 133.7H135.45V143.7H140.02C140.639 143.701 141.244 143.518 141.759 143.175C142.275 142.832 142.676 142.343 142.914 141.772C143.152 141.2 143.214 140.571 143.094 139.964C142.975 139.357 142.677 138.799 142.24 138.36L142.22 138.34ZM137.39 137.44V135.64H140.02C140.14 135.639 140.258 135.662 140.368 135.709C140.478 135.755 140.578 135.824 140.66 135.91C140.743 135.993 140.809 136.091 140.854 136.199C140.898 136.307 140.922 136.423 140.922 136.54C140.922 136.657 140.898 136.773 140.854 136.881C140.809 136.989 140.743 137.088 140.66 137.17C140.578 137.257 140.478 137.325 140.368 137.372C140.258 137.418 140.14 137.442 140.02 137.44H137.39ZM141.21 140.56C141.212 140.717 141.182 140.872 141.122 141.017C141.063 141.162 140.975 141.294 140.865 141.405C140.754 141.515 140.622 141.603 140.477 141.662C140.332 141.722 140.177 141.752 140.02 141.75H137.39V139.38H140.02C140.176 139.379 140.331 139.408 140.475 139.467C140.619 139.526 140.75 139.613 140.861 139.722C140.972 139.832 141.059 139.962 141.119 140.106C141.179 140.25 141.21 140.404 141.21 140.56Z" fill="white"/>
<path d="M151.54 133.7L146.88 143.7H149.02L149.68 142.26H154.82L155.48 143.7H157.65L152.96 133.7H151.54ZM153.92 140.31H150.54L152.19 136.77L153.92 140.31Z" fill="white"/>
<path d="M167.229 133.7L163.609 138.69L167.229 143.69H169.639L166.019 138.69L169.639 133.7H167.229Z" fill="white"/>
<path d="M163.549 133.7H161.609V143.69H163.549V133.7Z" fill="white"/>
<path d="M177.62 137.95L175.16 133.7H172.92L176.5 139.89L175.87 140.98C175.607 141.259 175.283 141.473 174.925 141.606C174.566 141.74 174.181 141.789 173.8 141.75H173.54V143.69H173.79C174.516 143.752 175.246 143.623 175.907 143.316C176.568 143.009 177.138 142.535 177.56 141.94L182.29 133.7H180.06L177.62 137.95Z" fill="white"/>
<path d="M187.75 133.7L183.08 143.7H185.22L185.89 142.26H191.02L191.69 143.7H193.85L189.17 133.7H187.75ZM190.12 140.31H186.81L188.47 136.77L190.12 140.31Z" fill="white"/>
<path d="M205.27 133.7H203.33V141.76H199.81V133.7H197.87V143.71H204.48V145.14H206.43V141.76H205.27V133.7Z" fill="white"/>
<path d="M212.74 139.68V133.7H210.8V143.69H212.12L216.84 137.54V143.69H218.78V133.7H217.34L212.74 139.68Z" fill="white"/>
<path d="M230.559 133.7L225.969 139.68V133.7H224.029V143.69H225.339L230.059 137.54V143.69H231.999V133.7H230.559Z" fill="white"/>
<path d="M230.54 81.5299C230.08 80.3599 229.22 80.8499 228.43 80.8799C223.88 81.0599 224.86 81.7499 224.92 77.3599C224.92 76.1399 225.16 74.9699 225.26 73.7999L225.46 71.5199C225.46 70.9799 225.52 69.5899 225.52 69.5899C225.52 69.5899 224.27 68.6899 224.12 68.2199C224.655 68.5383 225.221 68.7998 225.81 68.9999H225.87H225.93C226.433 68.845 226.876 68.5395 227.2 68.1246C227.524 67.7097 227.712 67.2054 227.74 66.6799C227.856 65.9844 227.7 65.2708 227.303 64.6879C226.906 64.1049 226.3 63.6973 225.61 63.5499H225.51C225.51 63.5499 225.1 63.8699 224.45 64.3499C224.636 63.8065 224.96 63.3207 225.39 62.9399C224.39 62.1206 223.182 61.5945 221.9 61.4199C221.09 61.2699 220.3 61.1499 219.58 61.0099C219.154 60.9671 218.75 60.7989 218.419 60.5266C218.087 60.2543 217.845 59.8901 217.72 59.4799C217.191 57.9806 216.318 56.6258 215.172 55.5233C214.026 54.4209 212.639 53.6013 211.12 53.1299C206.52 51.8007 201.845 50.7456 197.12 49.9699C192.6 49.1399 188.03 48.7199 183.47 48.1999C183.028 48.2195 182.591 48.0917 182.229 47.8365C181.867 47.5813 181.6 47.2132 181.47 46.7899C180.195 43.7084 178.743 40.7034 177.12 37.7899C177.12 37.7899 176.46 36.8699 176.44 36.8399L176.29 36.6499L176.2 36.5499L176.04 36.3899C175.81 36.1625 175.566 35.9488 175.31 35.7499C173.524 34.4051 171.483 33.4387 169.31 32.9099C164.511 31.6284 159.584 30.8806 154.62 30.6799C149.917 30.3866 145.199 30.4233 140.5 30.7899C138.728 30.8615 136.984 31.2652 135.36 31.9799C133.36 32.9799 131.78 34.2799 131.51 36.7299C131.396 37.9382 131.185 39.1353 130.88 40.3099C130.2 42.7899 130.44 45.5199 129.08 47.8199C128.28 49.19 127.808 50.7268 127.7 52.3099C127.19 58.3799 126.7 64.4499 126.22 70.5199C126.22 70.8999 126.35 71.3899 125.77 71.5699C125.5 71.2999 125.58 70.9599 125.57 70.6399C125.4 65.9399 125.21 61.2499 125.1 56.5499C125.1 55.4899 124.68 55.2599 123.68 55.2399C116.094 55.0866 108.507 54.8966 100.92 54.6699C96.5903 54.5499 92.2703 54.3499 87.9203 54.2099C86.0603 54.1399 84.1903 54.1299 82.3303 54.1299C82.0003 54.1299 81.4603 53.9599 81.4403 54.4899C81.4203 55.0199 81.9203 54.8399 82.2103 54.8199C83.1503 54.7599 83.5103 55.3399 83.7903 56.0999C84.0451 56.8522 84.1171 57.6543 84.0003 58.4399C83.6736 61.2999 83.3236 64.1599 82.9503 67.0199C82.8903 67.4899 83.0503 68.2199 82.3903 68.2699C81.7303 68.3199 81.3903 67.7699 81.0703 67.3499C80.7503 66.9299 81.0702 66.3999 81.3402 65.9899C81.5318 65.7519 81.6362 65.4555 81.6362 65.1499C81.6362 64.8444 81.5318 64.548 81.3402 64.3099C81.1654 64.0862 80.9197 63.9287 80.6434 63.8632C80.3671 63.7978 80.0768 63.8284 79.8203 63.9499C78.5703 64.3499 78.8803 65.2699 79.2703 66.0999C79.5103 66.6399 79.9003 67.2699 79.1003 67.4499C78.1003 67.6799 78.3003 68.3599 78.2003 69.0199C78.0603 70.0199 78.6403 71.1899 77.6403 72.0199C76.6403 72.8499 76.9503 74.0199 77.1803 74.8899C77.4103 75.7599 78.3703 75.0999 79.0003 75.2299C79.3329 75.2611 79.6677 75.2611 80.0003 75.2299C82.9403 75.2299 82.8803 75.2299 83.1103 72.2299C83.3803 68.7199 84.1102 65.3199 86.3402 62.4499C86.9659 61.6745 87.8139 61.1092 88.7703 60.8299C87.7554 61.9455 86.8386 63.1466 86.0303 64.4199C84.4603 67.5599 84.3702 70.9599 84.1202 74.3399C84.0854 74.5453 84.133 74.7562 84.2529 74.9267C84.3728 75.0971 84.5551 75.2133 84.7603 75.2499C85.9903 75.6899 87.1803 76.2499 88.3903 76.6999C88.7703 76.8599 89.2203 77.1399 89.4803 76.6999C89.7403 76.2599 90.3803 75.8699 89.7503 75.2599C89.4603 74.9899 89.5702 74.6599 89.6502 74.3499C90.0891 72.4392 90.9088 70.6366 92.0603 69.0499C92.1921 68.8123 92.374 68.6061 92.5932 68.4456C92.8125 68.285 93.0639 68.1739 93.3303 68.1199C92.8049 69.5415 92.3804 70.9985 92.0603 72.4799C90.7403 79.7499 95.8703 85.6099 103.2 85.0199C105.839 84.8716 108.33 83.7575 110.2 81.8899C109.14 81.7199 108.28 81.5999 107.42 81.4299C105.29 81.0199 104.77 80.1799 105.19 77.8799C105.58 78.0199 105.61 78.3499 105.66 78.6599C105.84 79.8299 106.44 80.3099 107.66 80.4299C114.27 81.0699 120.87 81.8199 127.48 82.5299C132.33 83.0599 137.18 83.6699 142.04 84.1099C145.6 84.4299 149.14 85.0599 152.73 85.1099C153.41 85.1099 154.02 85.1099 154.08 84.1699C154.14 83.2299 153.5 83.2999 152.91 83.2399L122.38 80.1799C120.47 79.9799 118.57 79.7599 116.66 79.5499C119.28 79.1099 121.85 79.5499 124.43 79.7099C133.71 80.3766 142.99 81.0433 152.27 81.7099C154.12 81.8399 154.27 81.7099 154.34 79.8799C154.52 76.7699 154.94 73.6799 155.21 70.5799C155.64 65.7199 157.96 62.3899 162.71 60.8999C162.93 60.8299 163.3 60.8999 163.31 60.4799C159.69 57.5899 159.52 51.5899 163.31 49.2599C162.577 50.4745 162.021 51.7878 161.66 53.1599C160.61 57.5999 163.17 60.3599 167.66 59.7099C170.512 59.2419 173.403 59.0677 176.29 59.1899C176.75 59.1899 177.29 59.0399 177.68 59.7399C176.09 59.8699 174.57 59.9599 173.06 60.1099C169.06 60.5199 165.06 61.1099 161.38 62.9799C160.445 63.4749 159.642 64.1875 159.04 65.0577C158.438 65.9279 158.054 66.9302 157.92 67.9799C157.2 73.0399 156.97 78.1399 156.59 83.2299C156.43 85.4199 156.73 85.6799 158.96 85.6499C159.29 85.6499 159.61 85.5799 159.96 85.5799C160.591 85.6125 161.213 85.4248 161.72 85.0489C162.227 84.6731 162.588 84.1325 162.74 83.5199C163.1 82.3899 163.37 81.2299 163.74 80.1099C164.465 77.6775 165.405 75.3148 166.55 73.0499C167.31 71.6399 168.05 70.9999 169.05 70.8299C169.05 70.8299 169.05 70.9199 169.05 70.9599C168.94 71.2499 168.83 71.5499 168.71 71.8399C167.382 74.8801 167.111 78.2776 167.94 81.4899C169.45 86.9899 172.94 90.6799 178.48 91.7599C184.02 92.8399 188.48 90.8199 191.89 86.2799C192.024 86.1585 192.129 86.0087 192.197 85.8415C192.265 85.6743 192.295 85.4939 192.285 85.3136C192.274 85.1333 192.223 84.9577 192.136 84.7996C192.049 84.6415 191.927 84.5049 191.78 84.3999C189.07 81.5899 187.6 78.0699 186.32 74.4599C186.26 74.2899 186.26 74.0899 186.61 73.9299C187.11 74.8799 187.61 75.8599 188.14 76.8099C189.67 79.5399 191.31 82.1799 193.88 84.0999C194.51 84.5699 194.88 84.7999 195.25 83.8299C195.405 83.4072 195.673 83.0356 196.026 82.7566C196.38 82.4777 196.803 82.3022 197.25 82.2499C197.52 82.1999 197.82 82.0899 198.04 82.3199C198.26 82.5499 197.99 82.8199 197.89 83.0499C196.54 86.0499 197.62 87.7699 200.89 87.6599C205.36 87.5099 209.82 87.2899 214.28 87.0499C218.74 86.8099 223.01 86.5299 227.37 86.2199C228.359 86.178 229.31 85.8284 230.09 85.2199C230.538 84.7268 230.821 84.1072 230.902 83.4464C230.982 82.7856 230.856 82.116 230.54 81.5299ZM99.5403 81.6899C98.361 81.3778 97.2944 80.7377 96.4642 79.8438C95.6341 78.95 95.0744 77.839 94.8503 76.6399C94.0103 73.3399 94.5903 70.3699 97.2203 67.9999C97.571 67.6436 97.99 67.3617 98.4522 67.171C98.9144 66.9802 99.4103 66.8847 99.9103 66.8899C96.5503 69.3899 95.3103 72.4799 96.2903 76.0899C97.2103 79.4299 98.9803 80.7999 102.98 81.1399C102.504 81.5231 101.937 81.7753 101.333 81.8718C100.73 81.9683 100.112 81.9056 99.5403 81.6899ZM100.71 77.6899C99.8558 77.5873 99.0717 77.1654 98.5153 76.5089C97.9589 75.8523 97.6713 75.0097 97.7103 74.1499C97.7103 72.1499 99.0903 70.4899 100.77 70.4999C101.637 70.5738 102.438 70.9876 103.001 71.651C103.563 72.3143 103.839 73.1732 103.77 74.0399C103.73 76.1199 102.46 77.6699 100.73 77.6599L100.71 77.6899ZM122.95 73.1799C121.14 73.0799 119.32 73.0599 117.53 72.8499C116.16 72.6999 115.6 73.2299 115.34 74.5099C115.206 75.5245 115.136 76.5465 115.13 77.5699C115.13 77.9299 115.13 78.3899 114.67 78.4599C114.21 78.5299 114.09 78.0699 114.06 77.6999C113.99 76.8799 113.47 76.7699 112.8 76.7899C111.91 76.7899 111.03 76.7899 110.14 76.7899C109.8 76.7899 109.47 76.6999 109.46 76.2699C109.45 75.8399 109.71 75.4999 110.15 75.5899C112 75.9299 111.73 74.7199 111.73 73.5899C111.884 70.5491 111.48 67.5058 110.54 64.6099C109.943 62.8356 108.825 61.2825 107.332 60.1533C105.839 59.024 104.04 58.3712 102.17 58.2799C100.43 58.0999 98.7303 58.3299 97.0203 58.2799C96.5903 58.2799 96.1103 58.4699 95.6603 58.0599C96.8703 57.3299 98.2203 57.5699 99.4703 57.4299C101.923 57.1211 104.41 57.2191 106.83 57.7199C112.76 58.9799 115.88 62.3299 116.83 68.3699L117.04 69.5999C117.36 71.7099 117.36 71.6999 119.55 71.8199C120.71 71.8799 121.87 71.9799 123.03 72.0599C123.41 72.0599 123.84 72.1299 123.82 72.6399C123.8 73.1499 123.35 73.1699 122.97 73.1499L122.95 73.1799ZM134.63 52.8399L133.51 52.7899C132.51 52.6899 131.51 52.5799 130.46 52.4899C129.97 52.4399 129.64 52.1999 129.68 51.6999C129.72 51.1999 130.13 51.1499 130.52 51.1799C131.96 51.2799 133.39 51.3799 134.83 51.4999C134.925 51.497 135.019 51.5137 135.106 51.5491C135.194 51.5845 135.273 51.6378 135.339 51.7056C135.405 51.7733 135.456 51.854 135.489 51.9426C135.522 52.0312 135.536 52.1256 135.53 52.2199C135.54 52.8099 135.09 52.8399 134.65 52.8099L134.63 52.8399ZM151.76 48.5899C146.47 48.6599 141.18 48.4599 135.91 48.0599C135.615 48.0407 135.327 47.9593 135.065 47.8209C134.804 47.6826 134.574 47.4905 134.392 47.2573C134.21 47.0241 134.079 46.755 134.008 46.4676C133.937 46.1803 133.927 45.8811 133.98 45.5899C134.42 42.7599 134.98 39.9399 135.54 37.1099C135.625 36.5694 135.913 36.0821 136.347 35.7489C136.781 35.4156 137.326 35.262 137.87 35.3199C141.54 35.3199 145.22 35.4999 148.87 35.6199C149.347 35.7227 149.81 35.8804 150.25 36.0899C148.73 36.8299 148.11 37.7699 148.53 39.0899C148.71 39.6799 149.01 40.2099 149.74 40.2899C150.044 40.3125 150.346 40.241 150.608 40.0854C150.869 39.9297 151.076 39.6974 151.2 39.4199C151.36 39.1699 151.2 38.6499 151.66 38.6699C152.12 38.6899 152.08 39.2299 152.19 39.5399C152.982 41.4853 153.614 43.4919 154.08 45.5399C154.42 47.3099 153.54 48.5299 151.78 48.5599L151.76 48.5899ZM172.38 46.8999C171.31 46.8999 170.23 46.8999 169.46 46.8999C167.087 46.8636 164.714 47.0342 162.37 47.4099C161.422 47.552 160.454 47.387 159.606 46.939C158.759 46.4909 158.077 45.7834 157.66 44.9199C156.92 43.3699 156.16 41.8199 155.46 40.2599C155.076 39.4298 154.758 38.5704 154.51 37.6899C154.388 37.2574 154.365 36.803 154.442 36.3603C154.519 35.9176 154.695 35.4979 154.956 35.1321C155.217 34.7664 155.557 34.464 155.951 34.2472C156.344 34.0305 156.782 33.905 157.23 33.8799C159.919 33.6499 162.622 33.6499 165.31 33.8799C166.008 33.9052 166.672 34.1906 167.17 34.6799C170.34 37.7599 172.02 41.6799 173.46 45.7399C173.79 46.5799 173.14 46.8499 172.4 46.8699L172.38 46.8999ZM175.43 47.0899C175.061 47.0539 174.713 46.9049 174.432 46.6633C174.151 46.4216 173.951 46.0992 173.86 45.7399C172.5 41.8699 170.91 38.1199 168.09 35.0299C167.94 34.8599 167.71 34.6799 167.83 34.4299C167.95 34.1799 168.3 34.2499 168.56 34.2899C170.118 34.4838 171.646 34.8666 173.11 35.4299C175.071 36.2199 176.665 37.7144 177.58 39.6199C178.35 41.2299 180.51 45.5499 180.74 46.1399C181.09 47.0499 180.8 47.6099 179.74 47.5199C178.32 47.3699 176.88 47.2399 175.45 47.0599L175.43 47.0899ZM174.82 86.8999C173.148 85.7862 171.858 84.1857 171.125 82.315C170.391 80.4442 170.25 78.3935 170.72 76.4399C171.45 73.3099 174.38 69.9399 177.5 69.7299C173.22 72.2699 171.34 75.9599 172.57 80.7799C173.75 85.4199 177.07 87.6099 181.95 87.5999C180.38 88.7299 177.06 88.3499 174.84 86.8699L174.82 86.8999ZM179.41 82.4399C178.866 82.4295 178.329 82.3118 177.83 82.0934C177.331 81.8751 176.88 81.5604 176.502 81.1674C176.125 80.7745 175.829 80.311 175.632 79.8035C175.434 79.296 175.338 78.7545 175.35 78.2099C175.351 77.1116 175.772 76.0552 176.527 75.2575C177.282 74.4598 178.314 73.9812 179.41 73.9199C180.49 73.9787 181.506 74.4488 182.25 75.2337C182.994 76.0186 183.409 77.0585 183.41 78.1399C183.434 78.6828 183.35 79.2251 183.162 79.7351C182.974 80.245 182.687 80.7124 182.316 81.11C181.946 81.5075 181.5 81.8272 181.004 82.0504C180.509 82.2736 179.974 82.3958 179.43 82.4099L179.41 82.4399ZM221.96 72.0099C220.825 72.7521 219.496 73.1418 218.14 73.1299C214.658 73.3705 211.159 73.1892 207.72 72.5899C207.027 72.4637 206.374 72.1774 205.811 71.7537C205.249 71.3301 204.793 70.7809 204.48 70.1499C207 70.5499 209.18 70.9799 211.39 71.1499C214.768 71.5206 218.181 71.4196 221.53 70.8499C221.84 70.7899 222.26 70.6099 222.43 70.9399C222.6 71.2699 222.3 71.7299 221.96 72.0099ZM221.89 75.6399C220.616 76.4196 219.144 76.8154 217.65 76.7799C214.171 76.9706 210.681 76.7896 207.24 76.2399C206.541 76.1175 205.875 75.8506 205.284 75.4563C204.693 75.062 204.191 74.549 203.81 73.9499C204.788 73.8735 205.772 73.982 206.71 74.2699C211.59 74.9499 216.47 75.3999 221.38 74.5099C221.73 74.4399 222.19 74.2299 222.38 74.6199C222.57 75.0099 222.22 75.3899 221.89 75.6199V75.6399ZM224.69 66.2699C224.75 66.0563 224.868 65.8635 225.032 65.7135C225.195 65.5634 225.397 65.462 225.615 65.4207C225.833 65.3794 226.058 65.3999 226.265 65.4798C226.472 65.5597 226.653 65.6959 226.786 65.8729C226.92 66.05 227.001 66.2609 227.022 66.4818C227.042 66.7027 227 66.9249 226.9 67.1232C226.801 67.3215 226.648 67.4881 226.459 67.6041C226.27 67.7202 226.052 67.7811 225.83 67.7799C225.2 67.7599 224.69 67.0799 224.69 66.2499V66.2699ZM222.45 67.5199C222.6 67.8899 222.33 68.1399 222.11 68.3699C221.378 69.0271 220.443 69.4151 219.46 69.4699C215.726 69.951 211.936 69.7785 208.26 68.9599C207.1 68.7299 206.41 67.8499 205.52 66.5499C209.746 67.5726 214.099 67.9701 218.44 67.7299C219.5 67.6699 220.56 67.4999 221.62 67.3899C221.91 67.3399 222.26 67.0099 222.45 67.4999V67.5199ZM191.92 59.5199C190.48 59.3899 189.04 59.3199 187.6 59.1999C187.31 59.1999 186.93 59.2599 186.8 58.8499C186.87 58.5999 187.07 58.5999 187.24 58.5899C192.31 58.4043 197.386 58.6653 202.41 59.3699C203.505 59.4896 204.545 59.9151 205.41 60.5977C206.274 61.2803 206.93 62.1925 207.3 63.2299C207.66 64.2299 208.53 63.9499 209.17 64.0299C212.48 64.4799 215.81 64.8199 219.17 65.2099C219.39 65.2099 219.61 65.2899 219.83 65.3299C219.83 65.5099 219.83 65.6799 219.83 65.8599H209.41H208.57C206.12 65.8599 206.09 65.8599 205.36 63.6699C205.131 62.9585 204.706 62.3257 204.136 61.8431C203.565 61.3606 202.87 61.0477 202.13 60.9399C198.764 60.2211 195.353 59.73 191.92 59.4699V59.5199ZM200.14 61.7099C197.91 64.4099 198.07 67.1499 199.23 70.2799C196.54 68.3299 196.44 63.0099 200.14 61.6599V61.7099ZM199.67 69.2499C199.074 68.3673 198.782 67.3137 198.84 66.2499C198.756 65.1834 199.05 64.1212 199.67 63.2499C199.811 63.0163 200.006 62.8202 200.239 62.6785C200.472 62.5367 200.736 62.4534 201.008 62.4357C201.28 62.418 201.553 62.4665 201.802 62.5769C202.052 62.6873 202.27 62.8565 202.44 63.0699C203.116 64.0019 203.48 65.1237 203.48 66.2749C203.48 67.4261 203.116 68.5479 202.44 69.4799C202.264 69.691 202.039 69.8557 201.785 69.9596C201.53 70.0634 201.254 70.1033 200.981 70.0756C200.707 70.048 200.445 69.9537 200.216 69.801C199.988 69.6483 199.8 69.442 199.67 69.1999V69.2499ZM203.67 85.3299C203.538 85.312 203.418 85.2469 203.33 85.1467C203.243 85.0465 203.194 84.918 203.194 84.7849C203.194 84.6519 203.243 84.5233 203.33 84.4231C203.418 84.3229 203.538 84.2578 203.67 84.2399C203.778 84.2783 203.871 84.3493 203.937 84.4431C204.003 84.537 204.037 84.649 204.036 84.7635C204.035 84.878 203.998 84.9893 203.931 85.0818C203.863 85.1744 203.769 85.2437 203.66 85.2799L203.67 85.3299ZM210.86 85.1499C210.728 85.132 210.608 85.0669 210.52 84.9667C210.432 84.8665 210.384 84.738 210.384 84.6049C210.384 84.4719 210.432 84.3433 210.52 84.2431C210.608 84.1429 210.728 84.0778 210.86 84.0599C210.968 84.0982 211.061 84.1693 211.127 84.2631C211.193 84.357 211.227 84.469 211.226 84.5835C211.225 84.698 211.188 84.8093 211.121 84.9019C211.053 84.9944 210.959 85.0637 210.85 85.0999L210.86 85.1499ZM219.42 84.8699C219.288 84.852 219.168 84.7869 219.08 84.6867C218.992 84.5865 218.944 84.458 218.944 84.3249C218.944 84.1919 218.992 84.0633 219.08 83.9631C219.168 83.8629 219.288 83.7978 219.42 83.7799C219.528 83.8182 219.621 83.8893 219.687 83.9832C219.753 84.077 219.787 84.189 219.786 84.3035C219.785 84.418 219.748 84.5293 219.681 84.6219C219.614 84.7144 219.519 84.7837 219.41 84.8199L219.42 84.8699ZM221.94 79.0099C220.747 79.7709 219.355 80.1606 217.94 80.1299C213.713 80.4305 209.466 80.2493 205.28 79.5899C204.579 79.484 203.913 79.2166 203.333 78.8087C202.753 78.4009 202.277 77.8638 201.94 77.2399C203.69 77.4799 205.23 77.7299 206.77 77.9099C211.665 78.565 216.625 78.565 221.52 77.9099C221.83 77.8599 222.24 77.6499 222.42 77.9699C222.6 78.2899 222.26 78.7499 221.94 79.0099ZM227.33 84.3999C227.198 84.382 227.078 84.3169 226.99 84.2167C226.903 84.1165 226.854 83.988 226.854 83.8549C226.854 83.7219 226.903 83.5933 226.99 83.4931C227.078 83.3929 227.198 83.3278 227.33 83.3099C227.446 83.342 227.548 83.4113 227.621 83.507C227.694 83.6027 227.733 83.7196 227.733 83.8399C227.733 83.9602 227.694 84.0771 227.621 84.1728C227.548 84.2685 227.446 84.3378 227.33 84.3699V84.3999Z" fill="white"/>
</svg>
