<svg width="39" height="38" viewBox="0 0 39 38" fill="none" xmlns="http://www.w3.org/2000/svg">
<g clip-path="url(#clip0_332_551)">
<circle cx="19.9979" cy="19" r="19" fill="#40C351" fill-opacity="0.2"/>
<path fill-rule="evenodd" clip-rule="evenodd" d="M4.85175 34.2817L6.9845 26.4957C5.66875 24.2172 4.97683 21.6317 4.97762 18.9835C4.98158 10.6987 11.7234 3.9585 20.009 3.9585C24.0299 3.96008 27.803 5.5252 30.6411 8.36491C33.4784 11.2054 35.0412 14.9801 35.0396 18.9954C35.0364 27.2802 28.293 34.0212 20.009 34.0212C20.0082 34.0212 20.009 34.0212 20.009 34.0212H20.0027C17.4875 34.0205 15.0152 33.3895 12.8199 32.1917L4.85175 34.2817Z" fill="white"/>
<path fill-rule="evenodd" clip-rule="evenodd" d="M4.85154 34.6774C4.74704 34.6774 4.64571 34.6362 4.5705 34.5602C4.47154 34.4597 4.43275 34.3132 4.46996 34.1778L6.55917 26.5493C5.264 24.2488 4.58079 21.6363 4.58238 18.9842C4.58554 10.4801 11.5055 3.5625 20.0088 3.5625C24.1334 3.56408 28.0086 5.17038 30.9211 8.08529C33.8337 11.001 35.4368 14.8754 35.4352 18.9952C35.432 27.4985 28.5113 34.4169 20.0088 34.4169C17.4842 34.4161 14.9865 33.7931 12.7698 32.6143L4.95208 34.6639C4.91883 34.6734 4.88558 34.6774 4.85154 34.6774Z" fill="white"/>
<path fill-rule="evenodd" clip-rule="evenodd" d="M28.8462 10.1588C26.487 7.79808 23.3512 6.49737 20.0135 6.49658C13.1229 6.49658 7.51867 12.0984 7.5155 18.9843C7.51471 21.3443 8.17496 23.6417 9.4258 25.6312L9.72346 26.1038L8.46075 30.7121L13.1894 29.4723L13.6462 29.7431C15.5636 30.8815 17.7628 31.4832 20.0048 31.484H20.0096C26.8955 31.484 32.4997 25.8813 32.5021 18.9946C32.5029 15.6577 31.2053 12.5196 28.8462 10.1588Z" fill="#40C351"/>
<path fill-rule="evenodd" clip-rule="evenodd" d="M16.2518 12.7023C15.9707 12.0769 15.6746 12.0642 15.4063 12.0532C15.187 12.0437 14.9368 12.0444 14.6866 12.0444C14.4365 12.0444 14.0295 12.1387 13.6852 12.5147C13.3408 12.8907 12.3702 13.7988 12.3702 15.6465C12.3702 17.4943 13.716 19.2803 13.9037 19.5304C14.0913 19.7806 16.5019 23.6938 20.3193 25.1996C23.4915 26.4504 24.1375 26.2018 24.8263 26.1393C25.515 26.0767 27.0485 25.2312 27.3612 24.3541C27.6739 23.4769 27.6739 22.7256 27.5805 22.5689C27.4863 22.4121 27.2361 22.3187 26.8609 22.1303C26.4856 21.9419 24.6387 21.0338 24.2943 20.9087C23.9499 20.7837 23.6998 20.7211 23.4488 21.0972C23.1986 21.4724 22.479 22.3187 22.2597 22.5689C22.0404 22.8198 21.8211 22.8515 21.4459 22.6631C21.0706 22.4747 19.861 22.0788 18.4257 20.7995C17.3094 19.8044 16.5558 18.5749 16.3365 18.1989C16.1172 17.8236 16.3127 17.6202 16.5011 17.4325C16.6698 17.2639 16.8764 16.9939 17.0648 16.7747C17.2524 16.5554 17.315 16.3986 17.44 16.1485C17.5651 15.8975 17.5026 15.6782 17.4084 15.4906C17.3158 15.3022 16.5858 13.4449 16.2518 12.7023Z" fill="white"/>
</g>
<defs>
<clipPath id="clip0_332_551">
<rect width="38" height="38" fill="white" transform="translate(0.997925)"/>
</clipPath>
</defs>
</svg>
