<svg width="46" height="46" viewBox="0 0 46 46" fill="none" xmlns="http://www.w3.org/2000/svg">
<g clip-path="url(#clip0_332_744)">
<g filter="url(#filter0_d_332_744)">
<path fill-rule="evenodd" clip-rule="evenodd" d="M19.1433 0.0647473C11.6931 0.824875 5.19791 5.41663 1.97941 12.199C1.09397 14.065 0.563681 15.7537 0.19198 17.8904C-0.0636717 19.3603 -0.0640778 23.0644 0.19127 24.5844C0.95122 29.1093 2.97938 33.0594 6.19564 36.2784C9.70451 39.7906 14.1812 41.9182 19.1287 42.4253C24.1602 42.9409 29.5842 41.457 33.6916 38.4409C34.0978 38.1427 34.4888 37.9346 34.6432 37.9346C34.8539 37.9346 36.0202 39.0487 40.6039 43.6284C40.059 43.0698 42.7834 45.7122 42.9788 45.8104C43.4945 46.0694 44.4478 46.0619 44.9586 45.7948C45.7738 45.3688 46.1782 44.3727 45.925 43.4148C45.8155 43.0001 45.2729 42.4253 43.6542 40.8017C39.273 36.4074 37.8248 34.8957 37.8248 34.7169C37.8248 34.586 38.0468 34.1762 38.318 33.806C40.4326 30.9201 41.7342 27.6881 42.2432 24.0594C42.4376 22.6725 42.4361 19.7391 42.2402 18.359C41.5834 13.7339 39.4934 9.53921 36.2109 6.25786C32.9121 2.96035 28.9213 0.927715 24.3417 0.212708C23.0376 0.00916035 20.4193 -0.0654296 19.1433 0.0647473ZM23.4773 4.37268C27.3821 4.92824 30.6443 6.57654 33.368 9.36991C35.2805 11.3315 36.4491 13.2298 37.302 15.7607C38.5288 19.4008 38.5343 23.0255 37.3187 26.6915C35.631 31.7811 31.4809 35.8775 26.3812 37.4878C24.715 38.0139 23.672 38.1799 21.6816 38.2353C19.6964 38.2906 18.5562 38.1758 16.9097 37.7549C10.7295 36.1746 5.79176 31.0007 4.52913 24.7823C3.73761 20.8837 4.27074 16.9153 6.04629 13.4891C6.91082 11.8209 7.83779 10.5581 9.19372 9.20122C11.3955 6.99786 13.8638 5.5709 16.848 4.77591C18.8738 4.2362 21.427 4.08092 23.4773 4.37268ZM20.3109 12.3081C19.8396 12.5534 19.5413 12.8686 19.3085 13.3677C19.1153 13.7817 19.0901 14.0617 19.043 16.3249C19.0033 18.2335 18.958 18.8644 18.8517 18.9924C18.7294 19.1396 18.4183 19.1602 16.3135 19.1607C14.9529 19.161 13.7485 19.2074 13.5311 19.2678C13.032 19.4065 12.4581 19.9172 12.2256 20.4295C11.9571 21.0211 11.9863 21.5817 12.3189 22.219C12.5478 22.6575 12.7047 22.8146 13.1428 23.0437V23.0437C13.4982 23.2295 13.8934 23.3266 14.2944 23.3266H16.1982C18.4106 23.3266 18.7291 23.3467 18.8517 23.4943C18.9583 23.6226 19.0032 24.2609 19.0431 26.2126C19.1014 29.0671 19.1435 29.2493 19.8975 29.9119C20.8759 30.7718 22.4278 30.4458 23.0122 29.2575C23.244 28.7863 23.2576 28.6445 23.3061 26.2126C23.3439 24.3081 23.3908 23.6211 23.4911 23.5004C23.6063 23.3617 24.0032 23.3343 26.2832 23.3073C28.8768 23.2765 28.9503 23.27 29.3285 23.0346C30.1502 22.5234 30.5128 21.4445 30.1674 20.5391C29.9585 19.9916 29.3478 19.4154 28.8213 19.269C28.5983 19.2071 27.4103 19.161 26.0278 19.1607C23.6573 19.1601 23.6199 19.1569 23.4641 18.9342C23.3324 18.746 23.3061 18.326 23.3061 16.4122C23.3061 13.7443 23.2282 13.3245 22.6238 12.7368C22.4127 12.5315 22.1114 12.3151 21.9542 12.256C21.5351 12.098 20.6611 12.1258 20.3109 12.3081Z" fill="#FFDA00"/>
</g>
</g>
<defs>
<filter id="filter0_d_332_744" x="-16" y="-4" width="78" height="78" filterUnits="userSpaceOnUse" color-interpolation-filters="sRGB">
<feFlood flood-opacity="0" result="BackgroundImageFix"/>
<feColorMatrix in="SourceAlpha" type="matrix" values="0 0 0 0 0 0 0 0 0 0 0 0 0 0 0 0 0 0 127 0" result="hardAlpha"/>
<feOffset dy="12"/>
<feGaussianBlur stdDeviation="8"/>
<feComposite in2="hardAlpha" operator="out"/>
<feColorMatrix type="matrix" values="0 0 0 0 0 0 0 0 0 0 0 0 0 0 0 0 0 0 0.25 0"/>
<feBlend mode="normal" in2="BackgroundImageFix" result="effect1_dropShadow_332_744"/>
<feBlend mode="normal" in="SourceGraphic" in2="effect1_dropShadow_332_744" result="shape"/>
</filter>
<clipPath id="clip0_332_744">
<rect width="46" height="46" fill="white"/>
</clipPath>
</defs>
</svg>
